<svg width="20" height="17" viewBox="0 0 20 17" fill="none" xmlns="http://www.w3.org/2000/svg">
<path opacity="0.8" d="M0.00163583 8.43755C-0.00119751 8.46163 0.000219159 8.41913 0.00163583 8.43755V8.43755ZM19.1266 7.72922H1.54722C1.65205 7.43738 1.82347 7.16255 2.06005 6.93022L7.65305 1.20263C7.92647 0.922131 7.9208 0.473047 7.6403 0.201047C7.36122 -0.0723694 6.91355 -0.0652861 6.63872 0.212381L1.05564 5.93147C0.377052 6.60155 0.00163583 7.54788 0.00163583 8.43897C0.0115525 9.32297 0.351553 10.2594 1.01597 10.9337L6.57355 16.7222C6.71239 16.8667 6.89797 16.939 7.08497 16.939C7.26205 16.939 7.43914 16.8738 7.57514 16.7406C7.85705 16.4715 7.86697 16.021 7.59639 15.739L2.03172 9.94347C1.80222 9.71113 1.63647 9.43772 1.5373 9.1473H19.1266C19.5176 9.1473 19.835 8.82997 19.835 8.43897C19.835 8.04797 19.5176 7.73063 19.1266 7.73063V7.72922Z" fill="black"/>
</svg>
