<svg width="26" height="30" viewBox="0 0 26 30" fill="none" xmlns="http://www.w3.org/2000/svg">
<path d="M25.0177 8.73977C24.7215 7.39498 23.6582 6.33797 22.3083 6.04746C21.2518 5.81969 20.1926 5.63421 19.1321 5.48691C19.087 4.7695 19.0338 4.06301 18.971 3.40289C18.8154 1.75668 17.5556 0.441899 15.9094 0.204583C14.0108 -0.0681942 12.5326 -0.0681942 10.6353 0.204583C8.98916 0.441899 7.73068 1.75805 7.57371 3.40289C7.51093 4.06165 7.45769 4.7695 7.41265 5.48691C6.35209 5.63421 5.29289 5.82106 4.23642 6.04746C2.88649 6.33797 1.82183 7.39498 1.52564 8.73977C0.218017 14.6618 0.218017 20.4187 1.52564 26.3407C1.82183 27.6855 2.88649 28.7425 4.23642 29.033C7.23521 29.6781 10.2545 30 13.2724 30C16.2903 30 19.3109 29.6781 22.3083 29.033C23.6582 28.7425 24.7229 27.6841 25.0177 26.3407C26.3267 20.4187 26.3267 14.6618 25.0177 8.73977ZM8.93183 3.5311C9.02738 2.53001 9.82588 1.69804 10.8291 1.55346C12.609 1.29705 13.933 1.29569 15.7143 1.55346C16.7189 1.69804 17.516 2.52864 17.6115 3.5311C17.6661 4.09847 17.7125 4.70267 17.7535 5.31642C14.7697 5 11.775 5 8.79125 5.31642C8.83219 4.70267 8.8786 4.09847 8.9332 3.5311H8.93183ZM23.6855 26.0461C23.5067 26.859 22.8379 27.5232 22.0203 27.6991C16.2166 28.9484 10.3282 28.9484 4.52442 27.6991C3.70682 27.5232 3.038 26.859 2.85919 26.0461C1.59525 20.3232 1.59525 14.7572 2.85919 9.03301C3.038 8.22013 3.70818 7.55592 4.52442 7.37998C5.45941 7.17812 6.39713 7.01037 7.33758 6.87398C7.25432 8.64703 7.22975 10.3191 7.26524 11.2861C7.27888 11.6626 7.59692 11.9708 7.97228 11.9422C8.349 11.9285 8.64247 11.6121 8.62882 11.2357C8.59333 10.2523 8.62199 8.51609 8.71208 6.69804C10.2299 6.52891 11.7518 6.44435 13.2737 6.44435C14.7956 6.44435 16.3162 6.52891 17.834 6.69804C17.9241 8.51609 17.9541 10.2523 17.9173 11.2357C17.9036 11.6121 18.1985 11.9285 18.5738 11.9422C18.5834 11.9422 18.5916 11.9422 18.5998 11.9422C18.9656 11.9422 19.2672 11.653 19.2822 11.2861C19.3177 10.3178 19.2918 8.64566 19.2085 6.87398C20.1476 7.01037 21.0853 7.17812 22.0217 7.37998C22.8393 7.55592 23.5081 8.22013 23.6869 9.03301C24.9522 14.7572 24.9508 20.3219 23.6855 26.0461Z" fill="white"/>
</svg>
