<svg width="36" height="36" viewBox="0 0 36 36" fill="none" xmlns="http://www.w3.org/2000/svg">
<path d="M18 0.5C22.886 0.5 23.4907 0.520933 25.3994 0.607422C28.1049 0.730348 30.732 1.48197 32.625 3.375C34.5136 5.26361 35.2682 7.88628 35.3926 10.6006C35.4791 12.5093 35.5 13.114 35.5 18C35.5 22.886 35.4791 23.4907 35.3926 25.3994C35.2681 28.1128 34.5239 30.7261 32.625 32.625C30.7364 34.5136 28.1123 35.2682 25.3994 35.3926C23.4907 35.4791 22.886 35.5 18 35.5C13.114 35.5 12.5093 35.4791 10.6006 35.3926C7.89028 35.2681 5.27087 34.5209 3.375 32.625H3.37402C1.48737 30.7395 0.731844 28.1107 0.607422 25.3994C0.520933 23.4907 0.5 22.886 0.5 18C0.5 13.114 0.520933 12.5093 0.607422 10.6006C0.731865 7.88731 1.47761 5.27239 3.375 3.375C5.26508 1.48492 7.88621 0.731847 10.6006 0.607422C12.5093 0.520933 13.114 0.5 18 0.5ZM18 2.74316C13.1919 2.74316 12.6123 2.7611 10.7031 2.84863C8.69789 2.9406 6.53384 3.38804 4.96094 4.96094C3.4126 6.50927 2.93918 8.71598 2.84863 10.7031C2.7611 12.6123 2.74316 13.1919 2.74316 18C2.74316 22.8081 2.7611 23.3877 2.84863 25.2969C2.93485 27.1698 3.3373 29.1996 4.67969 30.7383L4.96094 31.0391C6.50185 32.5815 8.72367 33.0608 10.7031 33.1514C12.6123 33.2389 13.1919 33.2568 18 33.2568C22.8081 33.2568 23.3877 33.2389 25.2969 33.1514L25.2959 33.1504C27.3073 33.0585 29.463 32.6151 31.0391 31.0391C32.5919 29.4862 33.0608 27.2915 33.1514 25.2969C33.2389 23.3877 33.2568 22.8081 33.2568 18C33.2568 13.1919 33.2389 12.6123 33.1514 10.7031C33.0594 8.6934 32.615 6.53685 31.0391 4.96094C29.477 3.39883 27.3013 2.94064 25.2969 2.84863C23.3877 2.7611 22.8081 2.74316 18 2.74316Z" stroke="#E3B000"/>
<path d="M18.001 9.2572C22.8293 9.25729 26.7441 13.1721 26.7441 18.0004C26.7441 22.8286 22.8292 26.7434 18.001 26.7435C13.1727 26.7435 9.2579 22.8286 9.25781 18.0004C9.25781 13.172 13.1726 9.2572 18.001 9.2572ZM18.001 11.5004C14.4113 11.5004 11.501 14.4107 11.501 18.0004C11.5011 21.5899 14.4114 24.5004 18.001 24.5004C21.5905 24.5003 24.5009 21.5899 24.501 18.0004C24.501 14.4108 21.5905 11.5005 18.001 11.5004Z" stroke="#E3B000"/>
<path d="M27.6084 6.73096C28.5251 6.73104 29.2686 7.47437 29.2686 8.39111C29.2685 9.30778 28.5251 10.0512 27.6084 10.0513C26.6917 10.0513 25.9483 9.30783 25.9482 8.39111C25.9482 7.47432 26.6916 6.73096 27.6084 6.73096Z" stroke="#E3B000"/>
</svg>
