<svg width="36" height="36" viewBox="0 0 36 36" fill="none" xmlns="http://www.w3.org/2000/svg">
<path d="M18 0C8.0745 0 0 8.0745 0 18C0 27.9255 8.0745 36 18 36C21.6705 36 25.1895 34.917 28.1745 32.868C28.5165 32.634 28.6035 32.1675 28.368 31.8255C28.134 31.482 27.669 31.3965 27.3255 31.632C24.591 33.5085 21.366 34.5 18 34.5C8.9025 34.5 1.5 27.0975 1.5 18C1.5 8.9025 8.9025 1.5 18 1.5C27.0975 1.5 34.5 8.9025 34.5 18V21.75C34.5 23.817 32.817 25.5 30.75 25.5C28.683 25.5 27 23.817 27 21.75V18C27 13.0365 22.9635 9 18 9C13.0365 9 9 13.0365 9 18C9 22.9635 13.0365 27 18 27C21.1965 27 24.009 25.3245 25.6065 22.806C26.097 25.197 28.2165 27 30.75 27C33.645 27 36 24.645 36 21.75V18C36 8.0745 27.9255 0 18 0ZM18 25.5C13.8645 25.5 10.5 22.1355 10.5 18C10.5 13.8645 13.8645 10.5 18 10.5C22.1355 10.5 25.5 13.8645 25.5 18C25.5 22.1355 22.1355 25.5 18 25.5Z" fill="#E3B000"/>
</svg>
