<svg width="36" height="36" viewBox="0 0 36 36" fill="none" xmlns="http://www.w3.org/2000/svg">
<path d="M20.4854 11.2995C20.4854 11.7135 20.8214 12.0495 21.2354 12.0495C22.5644 12.0495 23.6444 13.152 23.6444 14.5065C23.6444 14.9205 23.9804 15.2565 24.3944 15.2565C24.8084 15.2565 25.1444 14.9205 25.1444 14.5065C25.1444 12.324 23.3909 10.5495 21.2354 10.5495C20.8214 10.5495 20.4854 10.8855 20.4854 11.2995Z" fill="#E3B000"/>
<path d="M20.8096 5.625C25.9756 5.625 30.1801 9.897 30.1801 15.147C30.1801 15.561 30.5161 15.897 30.9301 15.897C31.3441 15.897 31.6801 15.561 31.6801 15.147C31.6801 9.0705 26.8036 4.125 20.8096 4.125C20.3956 4.125 20.0596 4.461 20.0596 4.875C20.0596 5.289 20.3956 5.625 20.8096 5.625Z" fill="#E3B000"/>
<path d="M34.1821 24.4695C33.5101 22.4055 31.8391 20.7855 29.7151 20.1375C27.2836 19.392 24.6481 20.019 22.8421 21.768L22.2091 22.3815C20.4106 21.93 18.0016 20.214 16.8691 19.128C15.7201 17.952 14.0281 15.5505 13.5796 13.827L14.1931 13.2045C15.9601 11.409 16.5916 8.79448 15.8401 6.37648C15.1846 4.26748 13.5526 2.61148 11.4721 1.94548C9.08113 1.17898 6.49363 1.82098 4.77763 3.56998C4.60963 3.70948 0.664626 7.04548 1.65763 12.4155C2.66863 17.541 6.33163 23.133 9.53263 26.4195C12.8326 29.577 18.4711 33.21 23.6386 34.2105C24.2401 34.32 24.8161 34.3695 25.3666 34.3695C29.5726 34.3695 32.2006 31.5105 32.5141 31.1505C34.3141 29.391 34.9516 26.8335 34.1806 24.4665L34.1821 24.4695ZM31.4476 30.099C31.4296 30.117 31.4116 30.135 31.3951 30.1545C31.3651 30.189 28.4686 33.561 23.9176 32.7375C19.0831 31.8015 13.6111 28.245 10.5916 25.3545C7.66213 22.3455 4.07863 16.9215 3.13363 12.1335C2.30413 7.65448 5.59663 4.84048 5.79163 4.67248C6.78313 3.66748 8.10163 3.12748 9.45313 3.12748C9.97513 3.12748 10.5031 3.20698 11.0176 3.37198C12.6316 3.88948 13.9006 5.17798 14.4106 6.81898C14.9971 8.70598 14.5051 10.749 13.1281 12.1485L12.2311 13.0575C12.0631 13.2285 11.9866 13.4685 12.0241 13.704C12.3736 15.8595 14.4421 18.7845 15.8161 20.19C17.2186 21.537 20.1661 23.589 22.3306 23.934C22.5616 23.9715 22.8001 23.8965 22.9711 23.7315L23.8876 22.8435C25.3006 21.474 27.3631 20.982 29.2786 21.5685C30.9361 22.0755 32.2366 23.3325 32.7571 24.9315C33.3526 26.76 32.8516 28.7385 31.4491 30.0975L31.4476 30.099Z" fill="#E3B000"/>
</svg>
