<svg width="30" height="30" viewBox="0 0 30 30" fill="none" xmlns="http://www.w3.org/2000/svg">
<path d="M25.9816 5.9475C25.8554 5.9175 23.9641 5.4825 21.1804 5.1475L20.1154 2.07625C20.0416 1.865 19.8616 1.70875 19.6404 1.6675C19.5516 1.65 17.4104 1.25 14.9991 1.25C12.5879 1.25 10.4466 1.65125 10.3566 1.6675C10.1366 1.71 9.95661 1.865 9.88286 2.0775L8.81786 5.1475C6.03536 5.4825 4.14286 5.9175 4.01536 5.9475C3.67786 6.025 3.46911 6.36125 3.54786 6.6975C3.61536 6.98625 3.87286 7.18125 4.15661 7.18125C4.20286 7.18125 4.25036 7.17625 4.29786 7.165C4.31036 7.1625 4.63036 7.08875 5.19161 6.98C4.94286 9.07625 4.71036 12.3375 4.71036 15.4025C4.71036 22.035 5.79161 26.89 5.83786 27.0938C5.88786 27.3137 6.05286 27.4913 6.27036 27.555C6.43411 27.6038 10.3554 28.75 14.9966 28.75C19.6379 28.75 23.5591 27.6038 23.7229 27.555C23.9404 27.4913 24.1066 27.3137 24.1566 27.0925C24.2016 26.8862 25.2829 21.9788 25.2829 15.4025C25.2829 12.3275 25.0516 9.06875 24.8041 6.98C25.3641 7.08875 25.6829 7.1625 25.6954 7.165C26.0341 7.24375 26.3666 7.035 26.4466 6.69875C26.5241 6.3625 26.3166 6.02625 25.9791 5.9475H25.9816ZM10.9441 2.83625C11.6354 2.72625 13.2566 2.5 14.9991 2.5C16.7416 2.5 18.3604 2.725 19.0554 2.83625L19.8054 5C18.3454 4.86125 16.7116 4.7625 14.9991 4.7625C13.2866 4.7625 11.6541 4.86 10.1929 5L10.9441 2.83625ZM24.0366 15.4037C24.0366 20.8325 23.2629 25.1975 23.0154 26.455C21.9529 26.7312 18.6654 27.5012 15.0004 27.5012C11.3354 27.5012 8.04536 26.7312 6.98411 26.455C6.73661 25.2062 5.96411 20.875 5.96411 15.4037C5.96411 12.215 6.23161 8.71625 6.48411 6.75C8.47286 6.42 11.6104 6.01375 15.0004 6.01375C18.3904 6.01375 21.5329 6.42 23.5191 6.75C23.7791 8.76625 24.0366 12.185 24.0366 15.4037Z" fill="white"/>
<path d="M11.9473 11.3975C11.6023 11.3975 11.3223 11.6775 11.3223 12.0225V22.075C11.3223 22.42 11.6023 22.7 11.9473 22.7C12.2923 22.7 12.5723 22.42 12.5723 22.075V12.0225C12.5723 11.6775 12.2923 11.3975 11.9473 11.3975Z" fill="white"/>
<path d="M18.0527 22.7C18.3977 22.7 18.6777 22.42 18.6777 22.075V12.0225C18.6777 11.6775 18.3977 11.3975 18.0527 11.3975C17.7077 11.3975 17.4277 11.6775 17.4277 12.0225V22.075C17.4277 22.42 17.7077 22.7 18.0527 22.7Z" fill="white"/>
</svg>
