<svg width="31" height="15" viewBox="0 0 31 15" fill="none" xmlns="http://www.w3.org/2000/svg">
<path d="M30.3602 1.77433C30.3611 1.93563 30.3302 2.09554 30.2692 2.24487C30.2082 2.3942 30.1183 2.53002 30.0047 2.64455L19.9911 12.6581C19.4219 13.2289 18.7456 13.6816 18.0011 13.9906C17.2566 14.2995 16.4584 14.4586 15.6523 14.4586C14.8462 14.4586 14.0481 14.2995 13.3036 13.9906C12.559 13.6816 11.8828 13.2289 11.3135 12.6581L1.29991 2.64455C1.18563 2.53027 1.09498 2.3946 1.03313 2.24529C0.971285 2.09598 0.939453 1.93595 0.939453 1.77433C0.939453 1.61272 0.971285 1.45269 1.03313 1.30337C1.09498 1.15406 1.18563 1.0184 1.29991 0.904117C1.41419 0.789839 1.54985 0.699187 1.69917 0.63734C1.84848 0.575493 2.00851 0.543662 2.17012 0.543662C2.33174 0.543662 2.49177 0.575493 2.64108 0.63734C2.79039 0.699187 2.92606 0.789839 3.04034 0.904117L13.0539 10.9177C13.7434 11.6063 14.6779 11.9931 15.6523 11.9931C16.6267 11.9931 17.5613 11.6063 18.2507 10.9177L28.2643 0.904116C28.3783 0.789237 28.5138 0.698054 28.6632 0.635829C28.8125 0.573604 28.9727 0.541568 29.1345 0.541568C29.2963 0.541568 29.4565 0.573604 29.6059 0.635829C29.7552 0.698054 29.8908 0.789237 30.0047 0.904116C30.1183 1.01864 30.2082 1.15446 30.2692 1.30379C30.3302 1.45312 30.3611 1.61303 30.3602 1.77433Z" fill="black"/>
</svg>
