<svg width="24" height="24" viewBox="0 0 24 24" fill="none" xmlns="http://www.w3.org/2000/svg">
<path d="M22.9934 5.195C22.9824 5.128 22.7164 3.533 21.6154 2.421C20.5044 1.331 18.9034 1.066 18.8364 1.055C18.7174 1.034 18.5974 1.06 18.4944 1.123C18.3724 1.198 15.4474 3.036 9.44543 9.009C3.11943 15.305 1.48143 17.791 1.41443 17.894C1.36943 17.964 1.34143 18.044 1.33543 18.127L1.00143 22.412C0.990427 22.558 1.04343 22.701 1.14643 22.805C1.24043 22.899 1.36743 22.951 1.50043 22.951C1.51343 22.951 1.52643 22.951 1.53943 22.95L5.84543 22.617C5.92843 22.611 6.00743 22.584 6.07743 22.539C6.18043 22.473 8.67743 20.842 15.0014 14.548C21.0034 8.57401 22.8494 5.662 22.9244 5.541C22.9884 5.438 23.0134 5.316 22.9944 5.197L22.9934 5.195ZM14.2944 13.838C8.75443 19.352 6.15443 21.265 5.63343 21.63L2.04343 21.908L2.32143 18.339C2.68943 17.818 4.61343 15.23 10.1494 9.72001C11.9224 7.95601 13.4274 6.554 14.6674 5.456C15.1514 5.568 16.3884 5.924 17.2624 6.782C18.1304 7.633 18.4924 8.828 18.6084 9.308C17.5004 10.548 16.0834 12.057 14.2944 13.838ZM19.3894 8.419C19.1534 7.738 18.7204 6.811 17.9624 6.067C17.2054 5.325 16.2594 4.901 15.5664 4.67C17.3734 3.121 18.4684 2.344 18.8584 2.08C19.2544 2.172 20.2204 2.455 20.9084 3.129C21.5834 3.811 21.8714 4.774 21.9664 5.171C21.7014 5.559 20.9274 6.641 19.3894 8.419Z" fill="white"/>
</svg>
