<svg width="36" height="36" viewBox="0 0 36 36" fill="none" xmlns="http://www.w3.org/2000/svg">
<path d="M25.785 17.6577H21.305V14.7697C21.305 14.1272 21.4624 13.5548 21.8108 13.1495C22.1471 12.7582 22.7251 12.4492 23.73 12.4492H25.9935H26.4935V11.9492V7.50333V7.08192L26.0782 7.01056L25.9935 7.50333C26.0782 7.01056 26.0781 7.01055 26.0781 7.01054L26.0779 7.01051L26.0775 7.01044L26.0761 7.01019L26.071 7.00933L26.0521 7.00616L25.9808 6.99451C25.9189 6.98455 25.8289 6.97044 25.715 6.95356C25.4874 6.91982 25.1639 6.87496 24.7783 6.83011C24.0092 6.74068 22.9836 6.6502 21.975 6.6502C19.8226 6.6502 17.9885 7.30839 16.6923 8.61395C15.396 9.91962 14.695 11.8148 14.695 14.1767V17.6562H10.6365H10.1365V18.1562V23.3777V23.8777H10.6365H14.695V35.4031C6.61775 33.8431 0.5 26.6942 0.5 18.1094C0.5 8.38177 8.33849 0.5 18 0.5C27.6615 0.5 35.5 8.38029 35.5 18.1094C35.5 26.6959 29.3835 33.8461 21.305 35.4047V23.8792H24.9885H25.418L25.4828 23.4546L26.2793 18.2331L26.3671 17.6577H25.785Z" stroke="black"/>
</svg>
