<svg width="57" height="57" viewBox="0 0 57 57" fill="none" xmlns="http://www.w3.org/2000/svg">
<g clip-path="url(#clip0_127_999)">
<path d="M46.3125 9.5H42.6835C42.0898 4.16338 37.5535 0 32.0625 0H10.6875C4.79513 0 0 4.79513 0 10.6875V43.5908C0 45.0348 0.790875 46.36 2.06625 47.0416C2.64812 47.3528 3.28225 47.5048 3.91638 47.5048C4.674 47.5048 5.42925 47.2839 6.08475 46.8493L14.4543 41.268C15.4256 46.1676 19.7576 49.8726 24.9375 49.8726H41.2039L50.9176 56.3493C51.5707 56.7863 52.3284 57.0048 53.086 57.0048C53.7201 57.0048 54.3542 56.8528 54.9337 56.5416C56.2091 55.8576 57 54.5348 57 53.0908V20.1875C57 14.2951 52.2049 9.5 46.3125 9.5ZM4.76662 44.8756C4.28687 45.1986 3.6955 45.2248 3.18725 44.9493C2.679 44.6785 2.375 44.1703 2.375 43.5931V10.6875C2.375 6.10375 6.10375 2.375 10.6875 2.375H32.0625C36.6463 2.375 40.375 6.10375 40.375 10.6875V29.6875C40.375 34.2713 36.6463 38 32.0625 38H15.4375C15.0219 38 14.7773 38.1995 14.7677 38.2066L4.76662 44.8733V44.8756ZM54.625 53.0931C54.625 53.6703 54.321 54.1785 53.8128 54.4493C53.2974 54.7248 52.7155 54.6939 52.231 54.3756L42.2204 47.6995C42.0256 47.5689 41.7952 47.5 41.5625 47.5H24.9375C20.7575 47.5 17.2876 44.3983 16.7105 40.375H32.0625C37.9549 40.375 42.75 35.5799 42.75 29.6875V11.875H46.3125C50.8963 11.875 54.625 15.6038 54.625 20.1875V53.0931ZM14.2738 12.825C15.0361 9.06775 18.791 6.55263 22.6575 7.23663C25.5265 7.73775 27.8849 10.0938 28.3884 12.9675C28.9204 15.9909 27.4835 19.0166 24.8116 20.4915C23.1087 21.4296 22.5625 22.0756 22.5625 23.1539C22.5625 23.8094 22.0305 24.3414 21.375 24.3414C20.7195 24.3414 20.1875 23.8094 20.1875 23.1539C20.1875 20.3253 22.4509 19.0808 23.6645 18.411C25.4742 17.4135 26.41 15.4375 26.0466 13.3784C25.7118 11.4713 24.1514 9.9085 22.2466 9.57363C19.6318 9.11763 17.1095 10.7896 16.6012 13.2953C16.4706 13.9389 15.846 14.3545 15.2 14.2239C14.5564 14.0909 14.1431 13.4663 14.2714 12.8226L14.2738 12.825ZM23.75 30.875C23.75 32.186 22.686 33.25 21.375 33.25C20.064 33.25 19 32.186 19 30.875C19 29.564 20.064 28.5 21.375 28.5C22.686 28.5 23.75 29.564 23.75 30.875Z" fill="black"/>
</g>
<defs>
<clipPath id="clip0_127_999">
<rect width="57" height="57" fill="white"/>
</clipPath>
</defs>
</svg>
