<svg width="24" height="25" viewBox="0 0 24 25" fill="none" xmlns="http://www.w3.org/2000/svg">
<path d="M15 23.698H9C3.57 23.698 1.25 21.2813 1.25 15.625V9.37504C1.25 3.71879 3.57 1.30212 9 1.30212H15C20.43 1.30212 22.75 3.71879 22.75 9.37504V15.625C22.75 21.2813 20.43 23.698 15 23.698ZM9 2.86462C4.39 2.86462 2.75 4.57296 2.75 9.37504V15.625C2.75 20.4271 4.39 22.1355 9 22.1355H15C19.61 22.1355 21.25 20.4271 21.25 15.625V9.37504C21.25 4.57296 19.61 2.86462 15 2.86462H9Z" fill="#BABABA"/>
<path d="M12 16.927C9.66 16.927 7.75 14.9375 7.75 12.5C7.75 10.0625 9.66 8.07288 12 8.07288C14.34 8.07288 16.25 10.0625 16.25 12.5C16.25 14.9375 14.34 16.927 12 16.927ZM12 9.63538C10.48 9.63538 9.25 10.9166 9.25 12.5C9.25 14.0833 10.48 15.3645 12 15.3645C13.52 15.3645 14.75 14.0833 14.75 12.5C14.75 10.9166 13.52 9.63538 12 9.63538Z" fill="#BABABA"/>
<path d="M17 7.81252C16.87 7.81252 16.74 7.78127 16.62 7.72919C16.5 7.67711 16.39 7.60419 16.29 7.51044C16.2 7.40627 16.12 7.29169 16.07 7.16669C16.02 7.04169 16 6.90627 16 6.77086C16 6.63544 16.02 6.50002 16.07 6.37502C16.13 6.23961 16.2 6.13544 16.29 6.03127C16.34 5.98961 16.39 5.93752 16.44 5.90627C16.5 5.86461 16.56 5.83336 16.62 5.81252C16.68 5.78127 16.74 5.76044 16.81 5.75002C17.13 5.67711 17.47 5.79169 17.71 6.03127C17.8 6.13544 17.87 6.23961 17.92 6.37502C17.97 6.50002 18 6.63544 18 6.77086C18 6.90627 17.97 7.04169 17.92 7.16669C17.87 7.29169 17.8 7.40627 17.71 7.51044C17.61 7.60419 17.5 7.67711 17.38 7.72919C17.26 7.78127 17.13 7.81252 17 7.81252Z" fill="#BABABA"/>
</svg>
