<svg width="36" height="36" viewBox="0 0 36 36" fill="none" xmlns="http://www.w3.org/2000/svg">
<path d="M25.2735 3.348L25.2964 2.84853C27.301 2.94048 29.4768 3.39872 31.0391 4.96095C32.6151 6.537 33.0596 8.69378 33.1515 10.7037M25.2735 3.348L33.1515 10.7037M25.2735 3.348L25.2964 2.84852M25.2735 3.348L25.2964 2.84852M33.1515 10.7037C33.239 12.6128 33.257 13.192 33.257 18C33.257 22.8078 33.239 23.3872 33.1515 25.2962M33.1515 10.7037L33.1515 25.2962M33.1515 25.2962C33.061 27.291 32.5921 29.486 31.0391 31.0391C29.463 32.6151 27.3078 33.0596 25.2963 33.1515M33.1515 25.2962L25.2963 33.1515M2.84853 25.2965L2.84852 25.2964C2.76099 23.3872 2.743 22.8081 2.743 18C2.743 13.1921 2.76099 12.6128 2.84852 10.7038L2.84853 25.2965ZM2.84853 25.2965C2.94045 27.2943 3.39244 29.4705 4.96095 31.0391M2.84853 25.2965L4.96095 31.0391M3.37442 32.6253L3.37455 32.6254C5.27044 34.5213 7.89031 35.2681 10.6006 35.3925C10.6007 35.3925 10.6008 35.3925 10.6009 35.3925L10.578 35.892C12.498 35.979 13.1115 36 18 36L3.37442 32.6253ZM3.37442 32.6253C1.4875 30.7398 0.731911 28.1109 0.607487 25.3994C0.520999 23.4907 0.5 22.886 0.5 18C0.5 13.1142 0.520997 12.5094 0.607475 10.6009L3.37442 32.6253ZM25.2964 2.84852C23.3872 2.76099 22.8081 2.743 18 2.743M25.2964 2.84852L18 2.743M18 2.743C13.1919 2.743 12.6128 2.76099 10.7036 2.84852C8.69823 2.94044 6.53397 3.38792 4.96095 4.96095C3.41249 6.50941 2.93901 8.71633 2.84852 10.7036L18 2.743ZM25.2963 33.1515C23.3872 33.239 22.808 33.257 18 33.257C13.192 33.257 12.6128 33.239 10.7037 33.1515M25.2963 33.1515H10.7037M10.7037 33.1515C8.72408 33.061 6.502 32.5816 4.96095 31.0391M10.7037 33.1515L4.96095 31.0391M18 0.5C13.1142 0.5 12.5094 0.520997 10.6009 0.607476L18 0.5ZM18 0.5C22.886 0.5 23.4906 0.520996 25.3993 0.607485M18 0.5L25.3993 0.607485M25.3993 0.607485C28.1048 0.730396 30.7324 1.4815 32.6254 3.37455C34.5141 5.26324 35.2681 7.88647 35.3925 10.6009L25.3993 0.607485ZM3.37455 3.37455C5.26464 1.48446 7.88624 0.731906 10.6006 0.607487L0.607487 10.6006C0.731924 7.88734 1.47716 5.27195 3.37455 3.37455Z" stroke="black"/>
<path d="M9.257 17.9998C9.257 13.1715 13.1716 9.25684 18 9.25684C22.8284 9.25684 26.743 13.1715 26.743 17.9998C26.743 22.8282 22.8284 26.7428 18 26.7428C13.1716 26.7428 9.257 22.8282 9.257 17.9998ZM11.5 17.9998C11.5 21.5895 14.4104 24.4998 18 24.4998C21.5896 24.4998 24.5 21.5895 24.5 17.9998C24.5 14.4102 21.5896 11.4998 18 11.4998C14.4104 11.4998 11.5 14.4102 11.5 17.9998Z" stroke="black"/>
<path d="M29.269 8.39096C29.269 9.30775 28.5258 10.051 27.609 10.051C26.6922 10.051 25.949 9.30775 25.949 8.39096C25.949 7.47416 26.6922 6.73096 27.609 6.73096C28.5258 6.73096 29.269 7.47416 29.269 8.39096Z" stroke="black"/>
</svg>
