<svg width="5" height="11" viewBox="0 0 5 11" fill="none" xmlns="http://www.w3.org/2000/svg">
<path d="M4.5571 11C4.49915 11.0003 4.4417 10.9888 4.38805 10.966C4.3344 10.9432 4.2856 10.9096 4.24446 10.8671L0.646839 7.12316C0.4418 6.91032 0.279125 6.65747 0.168129 6.3791C0.0571339 6.10074 0 5.80232 0 5.50093C0 5.19955 0.0571339 4.90113 0.168129 4.62276C0.279125 4.3444 0.4418 4.09155 0.646839 3.87871L4.24446 0.134769C4.28551 0.0920419 4.33426 0.058149 4.3879 0.0350253C4.44154 0.0119016 4.49904 4.50202e-10 4.5571 0C4.61517 -4.50202e-10 4.67266 0.0119016 4.7263 0.0350253C4.77995 0.058149 4.82869 0.0920419 4.86975 0.134769C4.9108 0.177496 4.94337 0.22822 4.96559 0.284046C4.98781 0.339871 4.99925 0.399705 4.99925 0.46013C4.99925 0.520555 4.98781 0.580388 4.96559 0.636214C4.94337 0.692039 4.9108 0.742764 4.86975 0.785491L1.27213 4.52943C1.02474 4.7872 0.885788 5.13662 0.885788 5.50093C0.885788 5.86525 1.02474 6.21466 1.27213 6.47243L4.86975 10.2164C4.91102 10.259 4.94378 10.3097 4.96613 10.3655C4.98849 10.4213 5 10.4812 5 10.5417C5 10.6022 4.98849 10.6621 4.96613 10.718C4.94378 10.7738 4.91102 10.8245 4.86975 10.8671C4.8286 10.9096 4.7798 10.9432 4.72615 10.966C4.6725 10.9888 4.61505 11.0003 4.5571 11Z" fill="black"/>
</svg>
