<svg width="27" height="23" viewBox="0 0 27 23" fill="none" xmlns="http://www.w3.org/2000/svg">
<path d="M19.7878 0.0767212C18.5679 0.0956957 17.3746 0.436229 16.3285 1.06393C15.2823 1.69163 14.4203 2.58428 13.8295 3.65172C13.2387 2.58428 12.3766 1.69163 11.3305 1.06393C10.2843 0.436229 9.09102 0.0956957 7.87113 0.0767212C5.92648 0.161211 4.09431 1.01191 2.77489 2.44297C1.45548 3.87403 0.756067 5.76912 0.829463 7.71422C0.829463 12.6401 6.0143 18.02 10.3628 21.6676C11.3337 22.4834 12.5613 22.9307 13.8295 22.9307C15.0977 22.9307 16.3252 22.4834 17.2961 21.6676C21.6446 18.02 26.8295 12.6401 26.8295 7.71422C26.9029 5.76912 26.2035 3.87403 24.884 2.44297C23.5646 1.01191 21.7324 0.161211 19.7878 0.0767212ZM15.904 20.0101C15.3234 20.499 14.5886 20.7672 13.8295 20.7672C13.0703 20.7672 12.3356 20.499 11.7549 20.0101C6.18871 15.3398 2.99613 10.8591 2.99613 7.71422C2.92207 6.3435 3.39303 4.9991 4.30627 3.97423C5.21952 2.94936 6.50097 2.32718 7.87113 2.24339C9.24129 2.32718 10.5227 2.94936 11.436 3.97423C12.3492 4.9991 12.8202 6.3435 12.7461 7.71422C12.7461 8.00154 12.8603 8.27709 13.0634 8.48025C13.2666 8.68342 13.5421 8.79755 13.8295 8.79755C14.1168 8.79755 14.3923 8.68342 14.5955 8.48025C14.7987 8.27709 14.9128 8.00154 14.9128 7.71422C14.8387 6.3435 15.3097 4.9991 16.2229 3.97423C17.1362 2.94936 18.4176 2.32718 19.7878 2.24339C21.158 2.32718 22.4394 2.94936 23.3527 3.97423C24.2659 4.9991 24.7369 6.3435 24.6628 7.71422C24.6628 10.8591 21.4702 15.3398 15.904 20.0057V20.0101Z" fill="black"/>
</svg>
