<svg width="27" height="26" viewBox="0 0 27 26" fill="none" xmlns="http://www.w3.org/2000/svg">
<g clip-path="url(#clip0_163_1717)">
<path fill-rule="evenodd" clip-rule="evenodd" d="M19.7878 2.07672C18.5679 2.0957 17.3746 2.43623 16.3285 3.06393C15.2823 3.69163 14.4203 4.58428 13.8295 5.65172C13.2387 4.58428 12.3766 3.69163 11.3305 3.06393C10.2843 2.43623 9.09102 2.0957 7.87113 2.07672C5.92648 2.16121 4.09431 3.01191 2.77489 4.44297C1.45548 5.87403 0.756067 7.76912 0.829463 9.71422C0.829463 14.6401 6.0143 20.02 10.3628 23.6676C11.3337 24.4834 12.5613 24.9307 13.8295 24.9307C15.0977 24.9307 16.3252 24.4834 17.2961 23.6676C21.6446 20.02 26.8295 14.6401 26.8295 9.71422C26.9029 7.76912 26.2034 5.87403 24.884 4.44297C23.5646 3.01191 21.7324 2.16121 19.7878 2.07672Z" fill="#DF2020"/>
</g>
<defs>
<clipPath id="clip0_163_1717">
<rect width="26" height="26" fill="white" transform="translate(0.830078)"/>
</clipPath>
</defs>
</svg>
