<svg width="17" height="13" viewBox="0 0 17 13" fill="none" xmlns="http://www.w3.org/2000/svg">
<path d="M15.9375 5.4375H1.0625C0.475701 5.4375 0 5.9132 0 6.5C0 7.0868 0.475701 7.5625 1.0625 7.5625H15.9375C16.5243 7.5625 17 7.0868 17 6.5C17 5.9132 16.5243 5.4375 15.9375 5.4375Z" fill="#606060"/>
<path d="M1.0625 2.60417H15.9375C16.5243 2.60417 17 2.12847 17 1.54167C17 0.954873 16.5243 0.479172 15.9375 0.479172H1.0625C0.475701 0.479172 0 0.954873 0 1.54167C0 2.12847 0.475701 2.60417 1.0625 2.60417Z" fill="#606060"/>
<path d="M15.9375 10.3958H1.0625C0.475701 10.3958 0 10.8715 0 11.4583C0 12.0451 0.475701 12.5208 1.0625 12.5208H15.9375C16.5243 12.5208 17 12.0451 17 11.4583C17 10.8715 16.5243 10.3958 15.9375 10.3958Z" fill="#606060"/>
</svg>
