<svg width="9" height="16" viewBox="0 0 9 16" fill="none" xmlns="http://www.w3.org/2000/svg">
<path d="M1.55334 15.9999C1.64108 16.0004 1.72806 15.9836 1.80928 15.9504C1.89051 15.9172 1.96439 15.8683 2.02668 15.8065L7.47334 10.3599C7.78377 10.0502 8.03005 9.68238 8.19809 9.27742C8.36614 8.87245 8.45264 8.43831 8.45264 7.99986C8.45264 7.56141 8.36614 7.12727 8.19809 6.7223C8.03005 6.31733 7.78377 5.9495 7.47334 5.63986L2.02668 0.193192C1.96452 0.131033 1.89073 0.0817262 1.80951 0.048086C1.7283 0.0144457 1.64125 -0.00286865 1.55334 -0.00286865C1.46544 -0.00286865 1.37839 0.0144457 1.29718 0.048086C1.21596 0.0817262 1.14217 0.131033 1.08001 0.193192C1.01785 0.255351 0.968545 0.329145 0.934905 0.41036C0.901264 0.491574 0.88395 0.57862 0.88395 0.666526C0.88395 0.754432 0.901264 0.841477 0.934905 0.922692C0.968545 1.00391 1.01785 1.0777 1.08001 1.13986L6.52668 6.58653C6.90121 6.96153 7.11158 7.46986 7.11158 7.99986C7.11158 8.52986 6.90121 9.03819 6.52668 9.41319L1.08001 14.8599C1.01753 14.9218 0.967929 14.9956 0.934083 15.0768C0.900237 15.158 0.882812 15.2452 0.882812 15.3332C0.882812 15.4212 0.900237 15.5083 0.934083 15.5896C0.967929 15.6708 1.01753 15.7445 1.08001 15.8065C1.14231 15.8683 1.21618 15.9172 1.29741 15.9504C1.37863 15.9836 1.46561 16.0004 1.55334 15.9999Z" fill="black"/>
</svg>
