<svg width="4" height="8" viewBox="0 0 4 8" fill="none" xmlns="http://www.w3.org/2000/svg">
<path d="M3.64568 7.99999C3.59932 8.00025 3.55336 7.99184 3.51044 7.97526C3.46752 7.95867 3.42848 7.93423 3.39557 7.90334L0.517471 5.18048C0.35344 5.02568 0.2233 4.8418 0.134503 4.63935C0.0457071 4.4369 0 4.21987 0 4.00068C0 3.78149 0.0457071 3.56446 0.134503 3.36201C0.2233 3.15956 0.35344 2.97567 0.517471 2.82088L3.39557 0.0980138C3.42841 0.0669396 3.46741 0.0422902 3.51032 0.0254729C3.55323 0.00865572 3.59923 3.2742e-10 3.64568 0C3.69213 -3.2742e-10 3.73813 0.00865572 3.78104 0.0254729C3.82396 0.0422902 3.86295 0.0669396 3.8958 0.0980138C3.92864 0.129088 3.9547 0.165978 3.97247 0.206579C3.99025 0.247179 3.9994 0.290694 3.9994 0.33464C3.9994 0.378585 3.99025 0.422101 3.97247 0.462701C3.9547 0.503301 3.92864 0.540192 3.8958 0.571266L1.0177 3.29413C0.819794 3.4816 0.70863 3.73572 0.70863 4.00068C0.70863 4.26563 0.819794 4.51976 1.0177 4.70722L3.8958 7.43009C3.92882 7.46107 3.95502 7.49793 3.97291 7.53855C3.99079 7.57916 4 7.62272 4 7.66672C4 7.71071 3.99079 7.75428 3.97291 7.79489C3.95502 7.8355 3.92882 7.87236 3.8958 7.90334C3.86288 7.93423 3.82384 7.95867 3.78092 7.97526C3.738 7.99184 3.69204 8.00025 3.64568 7.99999Z" fill="#E3B000"/>
</svg>
