<svg width="42" height="42" viewBox="0 0 42 42" fill="none" xmlns="http://www.w3.org/2000/svg">
<path d="M28.875 0H26.25C25.767 0 25.375 0.392 25.375 0.875C25.375 3.2865 23.4115 5.25 21 5.25C18.5885 5.25 16.625 3.2865 16.625 0.875C16.625 0.392 16.233 0 15.75 0H13.125C8.78325 0 5.25 3.53325 5.25 7.875V34.125C5.25 38.4668 8.78325 42 13.125 42H15.75C16.233 42 16.625 41.608 16.625 41.125C16.625 38.7135 18.5885 36.75 21 36.75C23.4115 36.75 25.375 38.7135 25.375 41.125C25.375 41.608 25.767 42 26.25 42H28.875C33.2167 42 36.75 38.4668 36.75 34.125V7.875C36.75 3.53325 33.2167 0 28.875 0ZM35 34.125C35 37.5025 32.2525 40.25 28.875 40.25H27.062C26.6367 37.2855 24.08 35 21 35C17.92 35 15.3633 37.2855 14.938 40.25H13.125C9.7475 40.25 7 37.5025 7 34.125V7.875C7 4.4975 9.7475 1.75 13.125 1.75H14.938C15.3633 4.7145 17.92 7 21 7C24.08 7 26.6367 4.7145 27.062 1.75H28.875C32.2525 1.75 35 4.4975 35 7.875V34.125ZM12.25 28.875C12.25 29.358 11.858 29.75 11.375 29.75H9.625C9.142 29.75 8.75 29.358 8.75 28.875C8.75 28.392 9.142 28 9.625 28H11.375C11.858 28 12.25 28.392 12.25 28.875ZM19.25 28.875C19.25 29.358 18.858 29.75 18.375 29.75H16.625C16.142 29.75 15.75 29.358 15.75 28.875C15.75 28.392 16.142 28 16.625 28H18.375C18.858 28 19.25 28.392 19.25 28.875ZM26.25 28.875C26.25 29.358 25.858 29.75 25.375 29.75H23.625C23.142 29.75 22.75 29.358 22.75 28.875C22.75 28.392 23.142 28 23.625 28H25.375C25.858 28 26.25 28.392 26.25 28.875ZM33.25 28.875C33.25 29.358 32.858 29.75 32.375 29.75H30.625C30.142 29.75 29.75 29.358 29.75 28.875C29.75 28.392 30.142 28 30.625 28H32.375C32.858 28 33.25 28.392 33.25 28.875Z" fill="#E3B000"/>
</svg>
