<svg width="62" height="62" viewBox="0 0 62 62" fill="none" xmlns="http://www.w3.org/2000/svg">
<path d="M0 24.5416C0 23.8286 0.578667 23.25 1.29167 23.25H14.2083C14.9213 23.25 15.5 23.8286 15.5 24.5416C15.5 25.2546 14.9213 25.8333 14.2083 25.8333H1.29167C0.578667 25.8333 0 25.2546 0 24.5416ZM62 27.125V40.0416C62 43.9063 59.5613 47.213 56.141 48.5046C56.5957 49.4966 56.8333 50.5661 56.8333 51.6666C56.8333 55.9395 53.3562 59.4166 49.0833 59.4166C44.8105 59.4166 41.3333 55.9395 41.3333 51.6666C41.3333 50.778 41.4883 49.9074 41.788 49.0833H20.212C20.5117 49.9074 20.6667 50.778 20.6667 51.6666C20.6667 55.9395 17.1895 59.4166 12.9167 59.4166C8.64383 59.4166 5.16667 55.9395 5.16667 51.6666C5.16667 50.5661 5.40433 49.4966 5.859 48.5046C2.43867 47.213 0 43.9063 0 40.0416V32.2916C0 31.5786 0.578667 31 1.29167 31C2.00467 31 2.58333 31.5786 2.58333 32.2916V40.0416C2.58333 43.6015 5.47925 46.5 9.04167 46.5H41.3333V14.2083C41.3333 9.22248 37.2775 5.16665 32.2917 5.16665C31.5787 5.16665 31 4.58798 31 3.87498C31 3.16198 31.5787 2.58331 32.2917 2.58331C38.7009 2.58331 43.9167 7.79906 43.9167 14.2083V15.5H50.375C56.7842 15.5 62 20.7157 62 27.125ZM43.9167 18.0833V31H59.4167V27.125C59.4167 22.1391 55.3608 18.0833 50.375 18.0833H43.9167ZM17.3678 49.0833H9.04167C8.85308 49.0833 8.6645 49.0756 8.47592 49.0652C7.998 49.8635 7.75 50.7496 7.75 51.6666C7.75 54.5161 10.0672 56.8333 12.9167 56.8333C15.7661 56.8333 18.0833 54.5161 18.0833 51.6666C18.0833 50.7573 17.8379 49.8764 17.3678 49.0833ZM53.5241 49.0652C53.3381 49.0781 53.1495 49.0833 52.9583 49.0833H44.6322C44.1621 49.8764 43.9167 50.7573 43.9167 51.6666C43.9167 54.5161 46.2339 56.8333 49.0833 56.8333C51.9327 56.8333 54.25 54.5161 54.25 51.6666C54.25 50.7496 53.9994 49.8635 53.5241 49.0652ZM59.4167 40.0416V33.5833H43.9167V46.5H52.9583C56.5207 46.5 59.4167 43.6015 59.4167 40.0416ZM1.29167 5.16665H24.5417C25.2547 5.16665 25.8333 4.58798 25.8333 3.87498C25.8333 3.16198 25.2547 2.58331 24.5417 2.58331H1.29167C0.578667 2.58331 0 3.16198 0 3.87498C0 4.58798 0.578667 5.16665 1.29167 5.16665ZM1.29167 15.5H19.375C20.088 15.5 20.6667 14.9213 20.6667 14.2083C20.6667 13.4953 20.088 12.9166 19.375 12.9166H1.29167C0.578667 12.9166 0 13.4953 0 14.2083C0 14.9213 0.578667 15.5 1.29167 15.5Z" fill="black"/>
</svg>
