<svg width="56" height="56" viewBox="0 0 56 56" fill="none" xmlns="http://www.w3.org/2000/svg">
<g clip-path="url(#clip0_62_225)">
<path d="M56 43.1667C56 42.5227 55.4773 42 54.8333 42H22.1667C17.6633 42 14 38.3367 14 33.8333V10.5C14 4.711 9.289 0 3.5 0H1.16667C0.522667 0 0 0.522667 0 1.16667C0 1.81067 0.522667 2.33333 1.16667 2.33333H3.5C8.00333 2.33333 11.6667 5.99667 11.6667 10.5V33.8333C11.6667 38.4137 14.6137 42.3173 18.711 43.7477C17.255 45.031 16.3333 46.9093 16.3333 49C16.3333 52.8593 19.474 56 23.3333 56C27.1927 56 30.3333 52.8593 30.3333 49C30.3333 47.208 29.6567 45.5723 28.546 44.3333H43.7873C42.6767 45.5723 42 47.208 42 49C42 52.8593 45.1407 56 49 56C52.8593 56 56 52.8593 56 49C56 47.208 55.3233 45.5723 54.2127 44.3333H54.8333C55.4773 44.3333 56 43.8107 56 43.1667ZM28 49C28 51.5737 25.907 53.6667 23.3333 53.6667C20.7597 53.6667 18.6667 51.5737 18.6667 49C18.6667 46.4263 20.7597 44.3333 23.3333 44.3333C25.907 44.3333 28 46.4263 28 49ZM53.6667 49C53.6667 51.5737 51.5737 53.6667 49 53.6667C46.4263 53.6667 44.3333 51.5737 44.3333 49C44.3333 46.4263 46.4263 44.3333 49 44.3333C51.5737 44.3333 53.6667 46.4263 53.6667 49ZM47.8333 9.33333H46.6667V5.83333C46.6667 2.618 44.051 0 40.8333 0H33.8333C30.6157 0 28 2.618 28 5.83333V9.33333H26.8333C22.33 9.33333 18.6667 12.9967 18.6667 17.5V29.1667C18.6667 33.67 22.33 37.3333 26.8333 37.3333H47.8333C52.3367 37.3333 56 33.67 56 29.1667V17.5C56 12.9967 52.3367 9.33333 47.8333 9.33333ZM30.3333 5.83333C30.3333 3.90367 31.9037 2.33333 33.8333 2.33333H40.8333C42.763 2.33333 44.3333 3.90367 44.3333 5.83333V9.33333H30.3333V5.83333ZM44.3333 11.6667V35H30.3333V11.6667H44.3333ZM21 29.1667V17.5C21 14.2847 23.6157 11.6667 26.8333 11.6667H28V35H26.8333C23.6157 35 21 32.382 21 29.1667ZM53.6667 29.1667C53.6667 32.382 51.051 35 47.8333 35H46.6667V11.6667H47.8333C51.051 11.6667 53.6667 14.2847 53.6667 17.5V29.1667Z" fill="black"/>
</g>
<defs>
<clipPath id="clip0_62_225">
<rect width="56" height="56" fill="white"/>
</clipPath>
</defs>
</svg>
