<svg width="52" height="56" viewBox="0 0 52 56" fill="none" xmlns="http://www.w3.org/2000/svg">
<path d="M25.9999 37.3294C26.9966 37.3294 27.9957 37.1031 28.9027 36.6551L34.217 34.0303C36.4325 32.9336 37.8095 30.7357 37.8095 28.2905V20.5021C37.8095 18.0569 36.4325 15.859 34.217 14.7624L28.9027 12.1375C27.084 11.2392 24.9134 11.2392 23.0947 12.1375L17.7803 14.7624C15.5648 15.859 14.1878 18.0569 14.1878 20.5021V28.2905C14.1878 30.7357 15.5648 32.9336 17.7803 34.0303L23.0947 36.6551C24.004 37.1031 25.0031 37.3294 25.9975 37.3294H25.9999ZM24.1528 14.2257C24.7315 13.9411 25.3669 13.7964 25.9999 13.7964C26.6328 13.7964 27.2682 13.9411 27.8469 14.2257L33.1612 16.8506C33.4801 17.0093 33.773 17.2029 34.0328 17.4269L27.5138 20.6468C26.5644 21.1158 25.433 21.1158 24.4835 20.6468L17.9646 17.4269C18.2244 17.2029 18.5173 17.0093 18.8361 16.8506L24.1505 14.2257H24.1528ZM16.5521 28.2905V20.5021C16.5521 20.1265 16.6041 19.7602 16.7009 19.4102L23.4277 22.7327C24.2331 23.1294 25.1165 23.33 25.9999 23.33C26.8832 23.33 27.7666 23.1294 28.572 22.7327L35.2988 19.4102C35.3956 19.7602 35.4476 20.1265 35.4476 20.5021V28.2905C35.4476 29.8468 34.5713 31.2467 33.1612 31.942L27.8469 34.5669C26.6895 35.1362 25.3102 35.1362 24.1528 34.5669L18.8385 31.942C17.4284 31.2444 16.5521 29.8468 16.5521 28.2905ZM43.7143 53.6644H33.2203C33.6738 53.3331 34.1084 52.9715 34.517 52.5748L44.3686 43.3609C54.5438 33.3093 54.5438 17.5669 44.3686 7.51769C39.4629 2.67156 32.9368 0 25.9999 0C19.0629 0 12.5345 2.67156 7.62875 7.51769C-2.54646 17.5669 -2.54646 33.3093 7.65 43.3842L17.4662 52.5631C17.8819 52.9645 18.3212 53.3308 18.7794 53.6668H8.283C7.63111 53.6668 7.10204 54.1894 7.10204 54.8334C7.10204 55.4774 7.63111 56 8.283 56H43.712C44.3639 56 44.8929 55.4774 44.8929 54.8334C44.8929 54.1894 44.3639 53.6668 43.712 53.6668L43.7143 53.6644ZM9.29863 41.7113C0.0611169 32.586 0.0611169 18.2926 9.29863 9.16728C13.7603 4.7598 19.6911 2.33324 25.9999 2.33324C32.3086 2.33324 38.2394 4.7598 42.6987 9.16728C51.9362 18.2926 51.9362 32.586 42.7223 41.6879L32.8802 50.8925C29.1861 54.4647 22.8278 54.4787 19.1054 50.8785L9.29863 41.7089V41.7113Z" fill="#E3B000"/>
</svg>
