<svg width="30" height="32" viewBox="0 0 30 32" fill="none" xmlns="http://www.w3.org/2000/svg">
<path d="M15.0004 21.332C15.5631 21.332 16.1271 21.2027 16.6391 20.9467L19.6391 19.4467C20.8897 18.82 21.6671 17.564 21.6671 16.1667V11.716C21.6671 10.3187 20.8897 9.06267 19.6391 8.436L16.6391 6.936C15.6124 6.42267 14.3871 6.42267 13.3604 6.936L10.3604 8.436C9.10974 9.06267 8.33241 10.3187 8.33241 11.716V16.1667C8.33241 17.564 9.10974 18.82 10.3604 19.4467L13.3604 20.9467C13.8737 21.2027 14.4377 21.332 14.9991 21.332H15.0004ZM13.9577 8.12933C14.2844 7.96667 14.6431 7.884 15.0004 7.884C15.3577 7.884 15.7164 7.96667 16.0431 8.12933L19.0431 9.62933C19.2231 9.72 19.3884 9.83067 19.5351 9.95867L15.8551 11.7987C15.3191 12.0667 14.6804 12.0667 14.1444 11.7987L10.4644 9.95867C10.6111 9.83067 10.7764 9.72 10.9564 9.62933L13.9564 8.12933H13.9577ZM9.66708 16.1667V11.716C9.66708 11.5013 9.69641 11.292 9.75108 11.092L13.5484 12.9907C14.0031 13.2173 14.5017 13.332 15.0004 13.332C15.4991 13.332 15.9977 13.2173 16.4524 12.9907L20.2497 11.092C20.3044 11.292 20.3337 11.5013 20.3337 11.716V16.1667C20.3337 17.056 19.8391 17.856 19.0431 18.2533L16.0431 19.7533C15.3897 20.0787 14.6111 20.0787 13.9577 19.7533L10.9577 18.2533C10.1617 17.8547 9.66708 17.056 9.66708 16.1667ZM25.0004 30.6667H19.0764C19.3324 30.4773 19.5777 30.2707 19.8084 30.044L25.3697 24.7787C31.1137 19.0347 31.1137 10.0387 25.3697 4.296C22.6004 1.52667 18.9164 0 15.0004 0C11.0844 0 7.39908 1.52667 4.62974 4.296C-1.11426 10.0387 -1.11426 19.0347 4.64174 24.792L10.1831 30.0373C10.4177 30.2667 10.6657 30.476 10.9244 30.668H4.99908C4.63108 30.668 4.33241 30.9667 4.33241 31.3347C4.33241 31.7027 4.63108 32.0013 4.99908 32.0013H24.9991C25.3671 32.0013 25.6657 31.7027 25.6657 31.3347C25.6657 30.9667 25.3671 30.668 24.9991 30.668L25.0004 30.6667ZM5.57241 23.836C0.357743 18.6213 0.357743 10.4533 5.57241 5.23867C8.09108 2.72 11.4391 1.33333 15.0004 1.33333C18.5617 1.33333 21.9097 2.72 24.4271 5.23867C29.6417 10.4533 29.6417 18.6213 24.4404 23.8227L18.8844 29.0827C16.7991 31.124 13.2097 31.132 11.1084 29.0747L5.57241 23.8347V23.836Z" fill="black"/>
</svg>
