<svg width="62" height="62" viewBox="0 0 62 62" fill="none" xmlns="http://www.w3.org/2000/svg">
<g clip-path="url(#clip0_62_207)">
<path d="M61.0595 26.5593L57.9672 20.783C56.8332 18.6621 54.3506 17.6597 52.0488 18.4063L31.0024 25.2702L9.9534 18.4063C7.64649 17.6571 5.16907 18.6621 4.03499 20.783L0.971152 26.5051C-0.0931817 28.2746 -0.294682 30.4007 0.420902 32.3382C1.1339 34.2757 2.67099 35.7611 4.62915 36.4147L5.17165 36.5956L5.15615 45.9498C5.15615 50.9641 8.34657 55.3996 13.1051 56.9858L25.6652 61.1734C27.378 61.7443 29.176 62.0285 30.9766 62.0285C32.7772 62.0285 34.5752 61.7443 36.2879 61.1734L48.8584 56.9832C53.6195 55.3971 56.8202 50.9666 56.8228 45.9601V36.5956L57.3705 36.4121C59.3287 35.7586 60.8657 34.2731 61.5787 32.3356C62.2943 30.3981 62.0928 28.2721 61.0595 26.5593ZM2.84407 31.4444C2.40232 30.2457 2.52632 28.9308 3.21865 27.7812L6.3109 22.0049C6.73457 21.2118 7.5509 20.7468 8.41115 20.7468C8.65657 20.7468 8.90457 20.7856 9.14999 20.8656L29.0907 27.3679L23.9964 36.7583C22.9967 38.4245 21.0101 39.1634 19.1733 38.5408L5.44807 33.9657C4.23649 33.5627 3.2884 32.6431 2.84407 31.447V31.4444ZM29.6694 59.3857C28.587 59.2876 27.5175 59.0654 26.4842 58.7192L13.924 54.5316C10.2221 53.2968 7.7369 49.8506 7.73949 45.9498L7.7524 37.4558L18.3544 40.9898C19.0622 41.2249 19.783 41.3386 20.4908 41.3386C22.79 41.3386 24.9729 40.1425 26.2387 38.0345L29.6849 31.6872L29.6694 59.3857ZM54.2395 45.9601C54.2395 49.8532 51.7466 53.2968 48.0421 54.529L35.4716 58.7192C34.4279 59.068 33.3455 59.2901 32.2527 59.3883L32.2682 31.5968L35.7867 38.081C37.0267 40.1528 39.2045 41.3386 41.5011 41.3386C42.2115 41.3386 42.9348 41.2249 43.6427 40.9898L54.2395 37.4584V45.9601ZM59.1556 31.4444C58.7112 32.6405 57.7632 33.5576 56.5516 33.9631L42.8263 38.5382C40.9792 39.1556 39.0004 38.4168 38.0317 36.8022L32.9115 27.3653L52.8522 20.8631C53.9579 20.4988 55.1488 20.9871 55.6939 22.0023L58.8172 27.8355C59.4785 28.9308 59.6025 30.2457 59.1607 31.4418L59.1556 31.4444ZM12.2939 15.1151C11.7953 14.6088 11.8005 13.7873 12.3094 13.2887L24.6629 1.12897C26.1612 -0.374531 28.6206 -0.377115 30.1344 1.13672L35.004 6.0063C36.4713 4.69397 38.9177 4.73272 40.3334 6.14839L47.4479 13.2603C47.9517 13.7641 47.9517 14.583 47.4479 15.0867C46.9442 15.5905 46.1252 15.5905 45.6215 15.0867L38.507 7.9748C38.0032 7.47105 37.1843 7.47105 36.6806 7.9748L25.4457 19.0056C25.1925 19.2536 24.8644 19.3776 24.5389 19.3776C24.2031 19.3776 23.8698 19.2485 23.6192 18.9927C23.1207 18.4838 23.1284 17.6649 23.6347 17.1663L33.1569 7.81722L28.3054 2.96572C27.8017 2.46197 26.9827 2.46197 26.479 2.96572L14.1203 15.1281C13.8672 15.3761 13.5417 15.5001 13.2136 15.5001C12.8803 15.5001 12.5445 15.3709 12.2939 15.1151Z" fill="black"/>
</g>
<defs>
<clipPath id="clip0_62_207">
<rect width="62" height="62" fill="white"/>
</clipPath>
</defs>
</svg>
