<svg width="24" height="24" viewBox="0 0 24 24" fill="none" xmlns="http://www.w3.org/2000/svg">
<path d="M19.5 3H4.5C2.019 3 0 5.019 0 7.5V16.5C0 18.981 2.019 21 4.5 21H19.5C21.981 21 24 18.981 24 16.5V7.5C24 5.019 21.981 3 19.5 3ZM1 8H23V10H1V8ZM4.5 4H19.5C21.258 4 22.704 5.308 22.949 7H1.051C1.296 5.308 2.742 4 4.5 4ZM19.5 20H4.5C2.57 20 1 18.43 1 16.5V11H23V16.5C23 18.43 21.43 20 19.5 20ZM5 14C3.897 14 3 14.897 3 16C3 17.103 3.897 18 5 18C6.103 18 7 17.103 7 16C7 14.897 6.103 14 5 14ZM5 17C4.449 17 4 16.552 4 16C4 15.448 4.449 15 5 15C5.551 15 6 15.448 6 16C6 16.552 5.551 17 5 17Z" fill="black"/>
</svg>
