<svg width="29" height="29" viewBox="0 0 29 29" fill="none" xmlns="http://www.w3.org/2000/svg">
<g clip-path="url(#clip0_358_3684)">
<path d="M14.5 0C6.50446 0 0 6.50446 0 14.5C0 22.4955 6.50446 29 14.5 29H29V14.5C29 6.50446 22.4955 0 14.5 0ZM27.7917 27.7917H14.5C7.17146 27.7917 1.20833 21.8285 1.20833 14.5C1.20833 7.17146 7.17146 1.20833 14.5 1.20833C21.8285 1.20833 27.7917 7.17146 27.7917 14.5V27.7917ZM19.2572 10.0026C19.6173 12.058 18.6422 14.1109 16.8297 15.1102C15.9101 15.6177 15.1042 17.1003 15.1042 18.2857V19.3333H13.8958V18.2857C13.8958 16.6665 14.9507 14.767 16.2473 14.0529C17.6284 13.2905 18.3425 11.7837 18.067 10.2116C17.812 8.758 16.617 7.56417 15.1622 7.308C14.0686 7.12071 13.0065 7.39621 12.1703 8.09704C11.3475 8.78821 10.875 9.80079 10.875 10.875H9.66667C9.66667 9.44192 10.2962 8.09342 11.3934 7.17267C12.4905 6.25071 13.9393 5.86767 15.3712 6.119C17.3178 6.45975 18.9153 8.05717 19.2572 10.0038V10.0026ZM15.7083 22.9583C15.7083 23.6253 15.167 24.1667 14.5 24.1667C13.833 24.1667 13.2917 23.6253 13.2917 22.9583C13.2917 22.2913 13.833 21.75 14.5 21.75C15.167 21.75 15.7083 22.2913 15.7083 22.9583Z" fill="#E3B000"/>
</g>
<defs>
<clipPath id="clip0_358_3684">
<rect width="29" height="29" fill="white"/>
</clipPath>
</defs>
</svg>
