<svg width="23" height="22" viewBox="0 0 23 22" fill="none" xmlns="http://www.w3.org/2000/svg">
<path d="M22.2429 20.4478L16.7758 14.9807C18.2656 13.1586 18.9982 10.8335 18.8218 8.48647C18.6455 6.13941 17.5738 3.94992 15.8284 2.37087C14.083 0.791825 11.7974 -0.0559616 9.4445 0.00286919C7.09156 0.0617 4.85124 1.02265 3.18695 2.68695C1.52265 4.35124 0.5617 6.59156 0.502869 8.9445C0.444038 11.2974 1.29183 13.583 2.87087 15.3284C4.44992 17.0738 6.63941 18.1455 8.98647 18.3218C11.3335 18.4982 13.6586 17.7656 15.4807 16.2758L20.9478 21.7429C21.1205 21.9097 21.3519 22.0021 21.592 22C21.8322 21.9979 22.0619 21.9016 22.2317 21.7317C22.4016 21.5619 22.4979 21.3322 22.5 21.092C22.5021 20.8519 22.4097 20.6205 22.2429 20.4478ZM9.68846 16.5158C8.23925 16.5158 6.82259 16.086 5.61762 15.2809C4.41265 14.4758 3.47349 13.3314 2.9189 11.9925C2.36432 10.6536 2.21921 9.18033 2.50194 7.75897C2.78466 6.33761 3.48252 5.03201 4.50727 4.00727C5.53201 2.98252 6.83761 2.28466 8.25897 2.00194C9.68033 1.71921 11.1536 1.86432 12.4925 2.4189C13.8314 2.97349 14.9758 3.91265 15.7809 5.11762C16.586 6.32259 17.0158 7.73925 17.0158 9.18846C17.0136 11.1311 16.2409 12.9936 14.8672 14.3672C13.4936 15.7409 11.6311 16.5136 9.68846 16.5158Z" fill="#606060"/>
</svg>
