<svg width="58" height="58" viewBox="0 0 58 58" fill="none" xmlns="http://www.w3.org/2000/svg">
<g clip-path="url(#clip0_62_228)">
<path d="M9.66671 16.9167H16.9167C19.5823 16.9167 21.75 14.7489 21.75 12.0833V4.83333C21.75 2.16775 19.5823 0 16.9167 0H9.66671C7.00112 0 4.83337 2.16775 4.83337 4.83333V12.0833C4.83337 14.7489 7.00112 16.9167 9.66671 16.9167ZM7.25004 4.83333C7.25004 3.49933 8.33271 2.41667 9.66671 2.41667H16.9167C18.2507 2.41667 19.3334 3.49933 19.3334 4.83333V12.0833C19.3334 13.4173 18.2507 14.5 16.9167 14.5H9.66671C8.33271 14.5 7.25004 13.4173 7.25004 12.0833V4.83333ZM21.75 33.8333V26.5833C21.75 23.9178 19.5823 21.75 16.9167 21.75H9.66671C7.00112 21.75 4.83337 23.9178 4.83337 26.5833V33.8333C4.83337 36.4989 7.00112 38.6667 9.66671 38.6667H16.9167C19.5823 38.6667 21.75 36.4989 21.75 33.8333ZM7.25004 33.8333V26.5833C7.25004 25.2493 8.33271 24.1667 9.66671 24.1667H16.9167C18.2507 24.1667 19.3334 25.2493 19.3334 26.5833V33.8333C19.3334 35.1673 18.2507 36.25 16.9167 36.25H9.66671C8.33271 36.25 7.25004 35.1673 7.25004 33.8333ZM31.4167 16.9167H38.6667C41.3323 16.9167 43.5 14.7489 43.5 12.0833V4.83333C43.5 2.16775 41.3323 0 38.6667 0H31.4167C28.7511 0 26.5834 2.16775 26.5834 4.83333V12.0833C26.5834 14.7489 28.7511 16.9167 31.4167 16.9167ZM29 4.83333C29 3.49933 30.0827 2.41667 31.4167 2.41667H38.6667C40.0007 2.41667 41.0834 3.49933 41.0834 4.83333V12.0833C41.0834 13.4173 40.0007 14.5 38.6667 14.5H31.4167C30.0827 14.5 29 13.4173 29 12.0833V4.83333ZM32.625 12.0833H37.4584C38.1254 12.0833 38.6667 11.542 38.6667 10.875V6.04167C38.6667 5.37467 38.1254 4.83333 37.4584 4.83333H32.625C31.958 4.83333 31.4167 5.37467 31.4167 6.04167V10.875C31.4167 11.542 31.958 12.0833 32.625 12.0833ZM33.8334 7.25H36.25V9.66667H33.8334V7.25ZM58 56.7917C58 57.4587 57.4587 58 56.7917 58C56.1247 58 55.5834 57.4587 55.5834 56.7917C55.5834 52.8356 53.1812 49.4788 49.3097 48.0264L37.033 43.4227C36.5618 43.2463 36.25 42.7943 36.25 42.2917V28.0503C36.25 26.1435 34.9571 24.4953 33.2437 24.215C32.1562 24.0458 31.1025 24.3262 30.2785 25.027C29.464 25.7182 29 26.7259 29 27.7917V48.1497C29 49.1671 28.4321 50.0733 27.5138 50.5156C26.5979 50.9506 25.5345 50.8346 24.7443 50.2014C24.7443 50.2014 20.5973 46.8978 20.59 46.8882C19.1255 45.53 16.837 45.6098 15.4788 47.0646C14.1134 48.5243 14.1883 50.8273 15.6335 52.1831L19.5799 55.9313C20.3653 56.6781 19.8385 58 18.7534 58C18.4465 58 18.1516 57.884 17.9293 57.6738L13.966 53.9328C11.5493 51.6683 11.4333 47.8476 13.7098 45.4164C15.9525 43.0142 19.708 42.8692 22.144 45.0563C22.1512 45.0612 26.2475 48.3116 26.2475 48.3116L26.581 48.1521V27.7941C26.581 26.0203 27.3567 24.3407 28.71 23.1903C30.0658 22.04 31.8686 21.547 33.628 21.8346C36.499 22.301 38.6643 24.9762 38.6643 28.0527V41.4555L50.158 45.7668C54.9937 47.5793 58 51.8037 58 56.7917Z" fill="black"/>
</g>
<defs>
<clipPath id="clip0_62_228">
<rect width="58" height="58" fill="white"/>
</clipPath>
</defs>
</svg>
