<svg width="23" height="23" viewBox="0 0 23 23" fill="none" xmlns="http://www.w3.org/2000/svg">
<path d="M18.5275 14.0559C17.8029 14.0565 17.0894 14.2334 16.4484 14.5713C15.8074 14.9092 15.2583 15.398 14.8485 15.9955L8.61067 13.179C9.05372 12.1091 9.05544 10.9074 8.61546 9.83633L14.8446 7.00541C15.4521 7.88397 16.3543 8.51571 17.3877 8.78604C18.421 9.05637 19.517 8.94738 20.4769 8.47885C21.4367 8.01032 22.1969 7.21327 22.6194 6.23229C23.042 5.25131 23.0989 4.15137 22.78 3.13199C22.461 2.11262 21.7873 1.24132 20.8809 0.67615C19.9746 0.110981 18.8957 -0.110625 17.8399 0.0515284C16.7842 0.213682 15.8216 0.748855 15.1266 1.55997C14.4317 2.37109 14.0504 3.40442 14.0521 4.47254C14.0561 4.72534 14.0818 4.97734 14.1288 5.22579L7.50667 8.23495C6.87067 7.63908 6.07445 7.24196 5.21585 7.09239C4.35724 6.94282 3.47365 7.04731 2.67361 7.39301C1.87358 7.73872 1.19195 8.3106 0.712469 9.03838C0.232987 9.76616 -0.0234649 10.6182 -0.0253798 11.4897C-0.0272947 12.3612 0.22541 13.2143 0.70169 13.9442C1.17797 14.6741 1.85708 15.249 2.65559 15.5982C3.45409 15.9474 4.33722 16.0558 5.19647 15.91C6.05573 15.7642 6.85368 15.3706 7.4923 14.7775L14.1316 17.7752C14.0855 18.0234 14.0602 18.275 14.0559 18.5275C14.0557 19.4121 14.3179 20.277 14.8093 21.0126C15.3007 21.7483 15.9992 22.3217 16.8165 22.6603C17.6337 22.999 18.5331 23.0876 19.4008 22.9151C20.2685 22.7425 21.0655 22.3165 21.691 21.691C22.3166 21.0654 22.7426 20.2684 22.9151 19.4007C23.0877 18.5331 22.999 17.6337 22.6604 16.8164C22.3217 15.9991 21.7483 15.3006 21.0127 14.8092C20.277 14.3179 19.4122 14.0557 18.5275 14.0559ZM18.5275 1.91666C19.0331 1.91647 19.5273 2.06621 19.9477 2.34694C20.3682 2.62766 20.6959 3.02677 20.8895 3.49378C21.0831 3.96079 21.1339 4.47472 21.0353 4.97057C20.9368 5.46643 20.6935 5.92193 20.3361 6.27947C19.9787 6.63701 19.5233 6.88053 19.0274 6.97923C18.5316 7.07793 18.0177 7.02737 17.5506 6.83395C17.0835 6.64053 16.6843 6.31294 16.4034 5.8926C16.1225 5.47227 15.9726 4.97808 15.9726 4.47254C15.9731 3.795 16.2424 3.14534 16.7214 2.66616C17.2004 2.18698 17.85 1.91742 18.5275 1.91666ZM4.47259 14.0559C3.96704 14.0561 3.4728 13.9063 3.05236 13.6256C2.63192 13.3449 2.30418 12.9458 2.11059 12.4787C1.91699 12.0117 1.86624 11.4978 1.96475 11.002C2.06326 10.5061 2.30661 10.0506 2.66402 9.69306C3.02142 9.33552 3.47683 9.092 3.97265 8.9933C4.46847 8.8946 4.98242 8.94516 5.4495 9.13858C5.91658 9.332 6.31581 9.65959 6.5967 10.0799C6.87758 10.5003 7.02751 10.9944 7.02751 11.5C7.02675 12.1775 6.75735 12.827 6.27841 13.3061C5.79946 13.7852 5.15005 14.0549 4.47259 14.0559ZM18.5275 21.0833C18.022 21.0833 17.5278 20.9334 17.1075 20.6526C16.6872 20.3717 16.3596 19.9726 16.1662 19.5055C15.9727 19.0385 15.9221 18.5246 16.0207 18.0288C16.1194 17.533 16.3628 17.0776 16.7202 16.7202C17.0777 16.3627 17.5331 16.1193 18.0289 16.0207C18.5247 15.9221 19.0386 15.9727 19.5056 16.1661C19.9726 16.3596 20.3718 16.6872 20.6526 17.1075C20.9335 17.5278 21.0834 18.0219 21.0834 18.5275C21.0829 19.2052 20.8134 19.855 20.3342 20.3342C19.855 20.8134 19.2052 21.0828 18.5275 21.0833Z" fill="black"/>
</svg>
