<svg width="42" height="42" viewBox="0 0 42 42" fill="none" xmlns="http://www.w3.org/2000/svg">
<g clip-path="url(#clip0_174_2831)">
<path d="M21.0013 41.9107C20.8666 41.9107 20.7336 41.8792 20.6093 41.818L19.8656 41.447C16.0261 39.5255 3.49609 32.3627 3.49609 20.797L3.49959 11.4415C3.49959 8.04124 5.66784 5.03649 8.89659 3.96724L20.7266 0.04374C20.9051 -0.01576 21.0993 -0.01576 21.2761 0.04374L33.1043 3.96549C36.3331 5.03649 38.5013 8.04124 38.5013 11.4397L38.4961 20.7952C38.4961 33.9167 25.9451 39.9875 22.0986 41.5362L21.3268 41.846C21.2218 41.888 21.1098 41.909 20.9996 41.909L21.0013 41.9107ZM21.0013 1.79724L9.44784 5.62799C6.93659 6.46099 5.25134 8.79724 5.25134 11.4415L5.24784 20.797C5.24784 31.3582 17.0358 38.0765 20.6496 39.8825L21.0416 40.0785L21.4476 39.9157C25.0368 38.472 36.7478 32.8247 36.7478 20.7987L36.7531 11.4432C36.7531 8.79899 35.0661 6.46274 32.5566 5.62974L21.0013 1.79724Z" fill="#E3B000"/>
<path d="M19.2175 26.25C18.0957 26.25 16.974 25.823 16.12 24.969L10.772 19.8852C10.422 19.5527 10.408 18.998 10.7405 18.648C11.073 18.2997 11.626 18.284 11.9777 18.6165L17.3415 23.716C18.381 24.7537 20.0452 24.7555 21.069 23.7317L30.89 14.2467C31.24 13.9125 31.7947 13.923 32.1272 14.2695C32.4632 14.616 32.4545 15.1707 32.1062 15.5067L22.294 24.9812C21.4487 25.8265 20.3322 26.2517 19.2157 26.2517L19.2175 26.25Z" fill="#E3B000"/>
</g>
<defs>
<clipPath id="clip0_174_2831">
<rect width="42" height="42" fill="white"/>
</clipPath>
</defs>
</svg>
