<svg width="28" height="34" viewBox="0 0 28 34" fill="none" xmlns="http://www.w3.org/2000/svg">
<path d="M26.9076 10.1135C26.5821 8.6345 25.4136 7.472 23.9301 7.1525C22.7691 6.902 21.6051 6.698 20.4396 6.536C20.3901 5.747 20.3316 4.97 20.2626 4.244C20.0916 2.4335 18.7071 0.987503 16.8981 0.726503C14.8116 0.426503 13.1871 0.426503 11.1021 0.726503C9.29306 0.987503 7.91006 2.435 7.73756 4.244C7.66856 4.9685 7.61006 5.747 7.56056 6.536C6.39506 6.698 5.23106 6.9035 4.07006 7.1525C2.58656 7.472 1.41656 8.6345 1.09106 10.1135C-0.345944 16.6265 -0.345944 22.958 1.09106 29.471C1.41656 30.95 2.58656 32.1125 4.07006 32.432C7.36556 33.1415 10.6836 33.4955 14.0001 33.4955C17.3166 33.4955 20.6361 33.1415 23.9301 32.432C25.4136 32.1125 26.5836 30.9485 26.9076 29.471C28.3461 22.958 28.3461 16.6265 26.9076 10.1135ZM9.23005 4.385C9.33506 3.284 10.2126 2.369 11.3151 2.21C13.2711 1.928 14.7261 1.9265 16.6836 2.21C17.7876 2.369 18.6636 3.2825 18.7686 4.385C18.8286 5.009 18.8796 5.6735 18.9246 6.3485C15.6456 6.0005 12.3546 6.0005 9.07556 6.3485C9.12056 5.6735 9.17156 5.009 9.23156 4.385H9.23005ZM25.4436 29.147C25.2471 30.041 24.5121 30.7715 23.6136 30.965C17.2356 32.339 10.7646 32.339 4.38656 30.965C3.48806 30.7715 2.75306 30.041 2.55656 29.147C1.16756 22.853 1.16756 16.7315 2.55656 10.436C2.75306 9.542 3.48956 8.8115 4.38656 8.618C5.41406 8.396 6.44456 8.2115 7.47806 8.0615C7.38656 10.0115 7.35956 11.8505 7.39856 12.914C7.41356 13.328 7.76306 13.667 8.17556 13.6355C8.58955 13.6205 8.91206 13.2725 8.89705 12.8585C8.85806 11.777 8.88956 9.8675 8.98856 7.868C10.6566 7.682 12.3291 7.589 14.0016 7.589C15.6741 7.589 17.3451 7.682 19.0131 7.868C19.1121 9.8675 19.1451 11.777 19.1046 12.8585C19.0896 13.2725 19.4136 13.6205 19.8261 13.6355C19.8366 13.6355 19.8456 13.6355 19.8546 13.6355C20.2566 13.6355 20.5881 13.3175 20.6046 12.914C20.6436 11.849 20.6151 10.01 20.5236 8.0615C21.5556 8.2115 22.5861 8.396 23.6151 8.618C24.5136 8.8115 25.2486 9.542 25.4451 10.436C26.8356 16.7315 26.8341 22.8515 25.4436 29.147Z" fill="black"/>
</svg>
