<svg width="29" height="29" viewBox="0 0 29 29" fill="none" xmlns="http://www.w3.org/2000/svg">
<path d="M21.1471 29H7.85547C4.85759 29 2.41797 26.5604 2.41797 23.5625V5.4375C2.41797 2.43963 4.85759 0 7.85547 0H21.1471C24.145 0 26.5846 2.43963 26.5846 5.4375V23.5625C26.5846 26.5604 24.145 29 21.1471 29ZM7.85547 1.20833C5.52339 1.20833 3.6263 3.10542 3.6263 5.4375V23.5625C3.6263 25.8946 5.52339 27.7917 7.85547 27.7917H21.1471C23.4792 27.7917 25.3763 25.8946 25.3763 23.5625V5.4375C25.3763 3.10542 23.4792 1.20833 21.1471 1.20833H7.85547ZM21.7513 6.64583C21.7513 6.31233 21.4806 6.04167 21.1471 6.04167H13.8971C13.5636 6.04167 13.293 6.31233 13.293 6.64583C13.293 6.97933 13.5636 7.25 13.8971 7.25H21.1471C21.4806 7.25 21.7513 6.97933 21.7513 6.64583ZM21.7513 13.8958C21.7513 13.5623 21.4806 13.2917 21.1471 13.2917H13.8971C13.5636 13.2917 13.293 13.5623 13.293 13.8958C13.293 14.2293 13.5636 14.5 13.8971 14.5H21.1471C21.4806 14.5 21.7513 14.2293 21.7513 13.8958ZM21.7513 21.1458C21.7513 20.8123 21.4806 20.5417 21.1471 20.5417H13.8971C13.5636 20.5417 13.293 20.8123 13.293 21.1458C13.293 21.4793 13.5636 21.75 13.8971 21.75H21.1471C21.4806 21.75 21.7513 21.4793 21.7513 21.1458ZM10.2721 8.45833H7.85547C7.52197 8.45833 7.2513 8.18767 7.2513 7.85417V5.4375C7.2513 5.104 7.52197 4.83333 7.85547 4.83333H10.2721C10.6056 4.83333 10.8763 5.104 10.8763 5.4375V7.85417C10.8763 8.18767 10.6056 8.45833 10.2721 8.45833ZM8.45964 7.25H9.66797V6.04167H8.45964V7.25ZM10.2721 15.7083H7.85547C7.52197 15.7083 7.2513 15.4377 7.2513 15.1042V12.6875C7.2513 12.354 7.52197 12.0833 7.85547 12.0833H10.2721C10.6056 12.0833 10.8763 12.354 10.8763 12.6875V15.1042C10.8763 15.4377 10.6056 15.7083 10.2721 15.7083ZM8.45964 14.5H9.66797V13.2917H8.45964V14.5ZM10.2721 22.9583H7.85547C7.52197 22.9583 7.2513 22.6877 7.2513 22.3542V19.9375C7.2513 19.604 7.52197 19.3333 7.85547 19.3333H10.2721C10.6056 19.3333 10.8763 19.604 10.8763 19.9375V22.3542C10.8763 22.6877 10.6056 22.9583 10.2721 22.9583ZM8.45964 21.75H9.66797V20.5417H8.45964V21.75Z" fill="#E3B000"/>
</svg>
