<svg width="29" height="29" viewBox="0 0 29 29" fill="none" xmlns="http://www.w3.org/2000/svg">
<g clip-path="url(#clip0_174_2923)">
<path d="M28.9867 15.1295C28.6544 22.9076 22.2901 29 14.5 29C8.74229 29 3.54767 25.578 1.24217 20.3773C1.23371 20.4329 1.20833 20.4837 1.20833 20.5417V24.7708C1.20833 25.1043 0.937667 25.375 0.604167 25.375C0.270667 25.375 0 25.1043 0 24.7708V20.5417C0 19.2089 1.08387 18.125 2.41667 18.125H6.64583C6.97933 18.125 7.25 18.3957 7.25 18.7292C7.25 19.0627 6.97933 19.3333 6.64583 19.3333H2.41667C2.32121 19.3333 2.23662 19.3672 2.14721 19.3877C4.14458 24.4325 9.04196 27.7917 14.5 27.7917C21.6413 27.7917 27.4739 22.208 27.7784 15.0788C27.7929 14.7465 28.0188 14.4831 28.4079 14.5C28.7402 14.5157 29 14.796 28.9867 15.1295ZM28.3958 3.625C28.0623 3.625 27.7917 3.89567 27.7917 4.22917V8.45833C27.7917 8.51633 27.7663 8.56588 27.759 8.62025C25.4523 3.422 20.2589 0 14.5 0C6.70988 0 0.346792 6.09242 0.0132917 13.8705C-0.00120833 14.204 0.257375 14.4855 0.590875 14.5H0.617458C0.938875 14.5 1.20713 14.2463 1.22042 13.9212C1.52613 6.79204 7.35875 1.20833 14.5 1.20833C19.9593 1.20833 24.8578 4.5675 26.8528 9.61229C26.7634 9.63283 26.6788 9.66667 26.5833 9.66667H22.3542C22.0207 9.66667 21.75 9.93733 21.75 10.2708C21.75 10.6043 22.0207 10.875 22.3542 10.875H26.5833C27.9161 10.875 29 9.79113 29 8.45833V4.22917C29 3.89567 28.7293 3.625 28.3958 3.625ZM11.4792 20.5417C9.81408 20.5417 8.45833 19.1871 8.45833 17.5208V11.4792C8.45833 9.81288 9.81408 8.45833 11.4792 8.45833H17.5208C19.1871 8.45833 20.5417 9.81288 20.5417 11.4792V17.5208C20.5417 19.1871 19.1871 20.5417 17.5208 20.5417H11.4792ZM11.4792 19.3333H17.5208C18.5201 19.3333 19.3333 18.5201 19.3333 17.5208V11.4792C19.3333 10.4799 18.5201 9.66667 17.5208 9.66667H11.4792C10.4799 9.66667 9.66667 10.4799 9.66667 11.4792V17.5208C9.66667 18.5201 10.4799 19.3333 11.4792 19.3333ZM13.2917 13.2917H15.7083C16.0418 13.2917 16.3125 13.021 16.3125 12.6875C16.3125 12.354 16.0418 12.0833 15.7083 12.0833H13.2917C12.9582 12.0833 12.6875 12.354 12.6875 12.6875C12.6875 13.021 12.9582 13.2917 13.2917 13.2917Z" fill="#E3B000"/>
</g>
<defs>
<clipPath id="clip0_174_2923">
<rect width="29" height="29" fill="white"/>
</clipPath>
</defs>
</svg>
