<svg width="29" height="29" viewBox="0 0 29 29" fill="none" xmlns="http://www.w3.org/2000/svg">
<g clip-path="url(#clip0_174_2920)">
<path d="M8.45833 28.3958C8.45833 28.7293 8.18767 29 7.85417 29C7.52067 29 7.25 28.7293 7.25 28.3958C7.25 24.731 4.26783 21.75 0.604167 21.75C0.270667 21.75 0 21.4793 0 21.1458C0 20.8123 0.270667 20.5417 0.604167 20.5417C4.93483 20.5417 8.45833 24.0652 8.45833 28.3958ZM0.604167 14.5C0.270667 14.5 0 14.7707 0 15.1042C0 15.4377 0.270667 15.7083 0.604167 15.7083C7.60042 15.7083 13.2917 21.3996 13.2917 28.3958C13.2917 28.7293 13.5623 29 13.8958 29C14.2293 29 14.5 28.7293 14.5 28.3958C14.5 20.7338 8.26621 14.5 0.604167 14.5ZM1.20833 26.5833C0.541333 26.5833 0 27.1247 0 27.7917C0 28.4587 0.541333 29 1.20833 29C1.87533 29 2.41667 28.4587 2.41667 27.7917C2.41667 27.1247 1.87533 26.5833 1.20833 26.5833ZM25.375 14.5C25.375 13.833 24.8337 13.2917 24.1667 13.2917C23.4997 13.2917 22.9583 13.833 22.9583 14.5C22.9583 15.167 23.4997 15.7083 24.1667 15.7083C24.8337 15.7083 25.375 15.167 25.375 14.5ZM25.9792 4.83333H5.4375C4.05396 4.83333 2.76225 4.14338 1.97683 3.02083C2.74171 1.9285 4.00563 1.20833 5.4375 1.20833H28.3958C28.7293 1.20833 29 0.937667 29 0.604167C29 0.270667 28.7293 0 28.3958 0H5.4375C2.43479 0 0 2.43479 0 5.4375V11.4792C0 11.8127 0.270667 12.0833 0.604167 12.0833C0.937667 12.0833 1.20833 11.8127 1.20833 11.4792V5.4375C1.20833 5.01579 1.28929 4.61704 1.40408 4.23279C2.42513 5.36258 3.88479 6.04167 5.4375 6.04167H25.9792C26.9797 6.04167 27.7917 6.85367 27.7917 7.85417V21.1458C27.7917 22.1463 26.9797 22.9583 25.9792 22.9583H16.9167C16.5832 22.9583 16.3125 23.229 16.3125 23.5625C16.3125 23.896 16.5832 24.1667 16.9167 24.1667H25.9792C27.6479 24.1667 29 22.8145 29 21.1458V7.85417C29 6.18546 27.6479 4.83333 25.9792 4.83333Z" fill="#E3B000"/>
</g>
<defs>
<clipPath id="clip0_174_2920">
<rect width="29" height="29" fill="white"/>
</clipPath>
</defs>
</svg>
