<svg width="29" height="29" viewBox="0 0 29 29" fill="none" xmlns="http://www.w3.org/2000/svg">
<path d="M14.5019 28.9988L13.6512 28.2798C10.9905 26.0287 2.30859 18.2168 2.30859 12.1933C2.30859 5.47012 7.77872 0 14.5019 0C21.225 0 26.6952 5.47012 26.6952 12.1933C26.6952 18.2168 18.0133 26.0287 15.3526 28.2798L14.5019 28.9988ZM14.5019 1.20833C8.44451 1.20833 3.51693 6.13592 3.51693 12.1933C3.51693 17.8386 12.6084 25.8148 14.4306 27.3579L14.5019 27.4183L14.5732 27.3579C16.3953 25.816 25.4868 17.8386 25.4868 12.1933C25.4868 6.13592 20.5593 1.20833 14.5019 1.20833Z" fill="#E3B000"/>
<path d="M14.5013 16.9167C11.8357 16.9167 9.66797 14.7489 9.66797 12.0833C9.66797 9.41775 11.8357 7.25 14.5013 7.25C17.1669 7.25 19.3346 9.41775 19.3346 12.0833C19.3346 14.7489 17.1669 16.9167 14.5013 16.9167ZM14.5013 8.45833C12.5027 8.45833 10.8763 10.0847 10.8763 12.0833C10.8763 14.0819 12.5027 15.7083 14.5013 15.7083C16.4999 15.7083 18.1263 14.0819 18.1263 12.0833C18.1263 10.0847 16.4999 8.45833 14.5013 8.45833Z" fill="#E3B000"/>
</svg>
