<svg width="29" height="29" viewBox="0 0 29 29" fill="none" xmlns="http://www.w3.org/2000/svg">
<path d="M22.9596 10.179V8.45833C22.9596 6.21504 22.0685 4.06363 20.4822 2.47739C18.896 0.891144 16.7446 0 14.5013 0C12.258 0 10.1066 0.891144 8.52036 2.47739C6.93411 4.06363 6.04297 6.21504 6.04297 8.45833V10.179C4.96678 10.6487 4.05078 11.4218 3.40699 12.4038C2.7632 13.3858 2.41951 14.5341 2.41797 15.7083V22.9583C2.41989 24.5601 3.05703 26.0957 4.18965 27.2283C5.32227 28.3609 6.85787 28.9981 8.45964 29H20.543C22.1447 28.9981 23.6803 28.3609 24.813 27.2283C25.9456 26.0957 26.5827 24.5601 26.5846 22.9583V15.7083C26.5831 14.5341 26.2394 13.3858 25.5956 12.4038C24.9518 11.4218 24.0358 10.6487 22.9596 10.179ZM8.45964 8.45833C8.45964 6.85598 9.09617 5.31926 10.2292 4.18623C11.3622 3.0532 12.899 2.41667 14.5013 2.41667C16.1037 2.41667 17.6404 3.0532 18.7734 4.18623C19.9064 5.31926 20.543 6.85598 20.543 8.45833V9.66667H8.45964V8.45833ZM24.168 22.9583C24.168 23.9197 23.7861 24.8418 23.1062 25.5216C22.4264 26.2014 21.5044 26.5833 20.543 26.5833H8.45964C7.49823 26.5833 6.57619 26.2014 5.89637 25.5216C5.21655 24.8418 4.83464 23.9197 4.83464 22.9583V15.7083C4.83464 14.7469 5.21655 13.8249 5.89637 13.1451C6.57619 12.4653 7.49823 12.0833 8.45964 12.0833H20.543C21.5044 12.0833 22.4264 12.4653 23.1062 13.1451C23.7861 13.8249 24.168 14.7469 24.168 15.7083V22.9583Z" fill="#E3B000"/>
<path d="M14.5013 16.9167C14.1808 16.9167 13.8735 17.044 13.6469 17.2706C13.4203 17.4972 13.293 17.8046 13.293 18.125V20.5417C13.293 20.8622 13.4203 21.1695 13.6469 21.3961C13.8735 21.6227 14.1808 21.75 14.5013 21.75C14.8218 21.75 15.1291 21.6227 15.3557 21.3961C15.5823 21.1695 15.7096 20.8622 15.7096 20.5417V18.125C15.7096 17.8046 15.5823 17.4972 15.3557 17.2706C15.1291 17.044 14.8218 16.9167 14.5013 16.9167Z" fill="#E3B000"/>
</svg>
