<svg width="29" height="29" viewBox="0 0 29 29" fill="none" xmlns="http://www.w3.org/2000/svg">
<path d="M14.5023 14.2269C18.7315 14.2015 20.9149 12.0156 20.9935 7.70673C20.921 3.54281 18.6167 1.2349 14.4951 1.20831C10.3239 1.23369 8.00391 3.70473 8.00391 7.70673C8.00391 11.89 10.3251 14.2015 14.5023 14.2269ZM14.4951 2.41665C17.9449 2.4396 19.7247 4.22673 19.7852 7.70673C19.7187 11.31 18.0379 12.998 14.5023 13.0186C10.9619 12.998 9.28111 11.3136 9.21224 7.7176C9.2787 4.17235 11.009 2.4384 14.4951 2.41665Z" fill="#E3B000" stroke="#E3B000"/>
<path d="M14.4958 17.2719C8.14115 17.3118 4.72157 20.7362 4.60557 27.1766C4.59953 27.5101 4.86536 27.7856 5.19886 27.7917H5.20974C5.5384 27.7917 5.80786 27.5282 5.8139 27.1984C5.91782 21.3682 8.75982 18.5153 14.4946 18.4802C20.1604 18.5165 23.0846 21.4503 23.1837 27.1984C23.1897 27.5319 23.4918 27.8086 23.7987 27.7917C24.1322 27.7856 24.3981 27.5113 24.392 27.1766C24.2821 20.8305 20.7707 17.3118 14.4958 17.2719Z" fill="#E3B000" stroke="#E3B000"/>
</svg>
