<svg width="29" height="29" viewBox="0 0 29 29" fill="none" xmlns="http://www.w3.org/2000/svg">
<g clip-path="url(#clip0_174_2908)">
<path d="M27.584 11.0828L22.8969 6.39571C22.669 6.1756 22.3638 6.05381 22.0469 6.05656C21.7301 6.05932 21.4271 6.1864 21.203 6.41043C20.979 6.63447 20.8519 6.93753 20.8492 7.25435C20.8464 7.57117 20.9682 7.8764 21.1883 8.1043L25.8754 12.7914C26.0147 12.9334 26.1364 13.0916 26.2379 13.2627C26.2198 13.2627 26.2053 13.253 26.1872 13.253L7.23568 13.2917C6.91521 13.2917 6.60786 13.419 6.38126 13.6456C6.15465 13.8722 6.02734 14.1795 6.02734 14.5C6.02734 14.8205 6.15465 15.1278 6.38126 15.3544C6.60786 15.581 6.91521 15.7083 7.23568 15.7083L26.1799 15.6697C26.2138 15.6697 26.2416 15.6528 26.2742 15.6503C26.167 15.8547 26.0311 16.0427 25.8706 16.2086L21.1835 20.8957C21.0681 21.0072 20.976 21.1405 20.9127 21.2879C20.8494 21.4354 20.816 21.5939 20.8146 21.7544C20.8132 21.9148 20.8438 22.0739 20.9046 22.2224C20.9653 22.3709 21.055 22.5058 21.1685 22.6193C21.2819 22.7327 21.4169 22.8225 21.5654 22.8832C21.7139 22.944 21.873 22.9745 22.0334 22.9731C22.1939 22.9717 22.3524 22.9384 22.4998 22.8751C22.6473 22.8118 22.7806 22.7197 22.8921 22.6043L27.5792 17.9172C28.4853 17.0108 28.9943 15.7816 28.9943 14.5C28.9943 13.2184 28.4853 11.9892 27.5792 11.0828H27.584Z" fill="#E90808"/>
<path d="M8.45833 26.5833H6.04167C5.08026 26.5833 4.15822 26.2014 3.4784 25.5216C2.79859 24.8418 2.41667 23.9197 2.41667 22.9583V6.04167C2.41667 5.08026 2.79859 4.15822 3.4784 3.4784C4.15822 2.79859 5.08026 2.41667 6.04167 2.41667H8.45833C8.7788 2.41667 9.08615 2.28936 9.31275 2.06275C9.53936 1.83615 9.66667 1.5288 9.66667 1.20833C9.66667 0.887863 9.53936 0.580519 9.31275 0.353913C9.08615 0.127306 8.7788 0 8.45833 0L6.04167 0C4.43991 0.00191866 2.9043 0.639066 1.77168 1.77168C0.639066 2.9043 0.00191866 4.43991 0 6.04167L0 22.9583C0.00191866 24.5601 0.639066 26.0957 1.77168 27.2283C2.9043 28.3609 4.43991 28.9981 6.04167 29H8.45833C8.7788 29 9.08615 28.8727 9.31275 28.6461C9.53936 28.4195 9.66667 28.1121 9.66667 27.7917C9.66667 27.4712 9.53936 27.1639 9.31275 26.9372C9.08615 26.7106 8.7788 26.5833 8.45833 26.5833Z" fill="#E90808"/>
</g>
<defs>
<clipPath id="clip0_174_2908">
<rect width="29" height="29" fill="white"/>
</clipPath>
</defs>
</svg>
