<svg width="29" height="29" viewBox="0 0 29 29" fill="none" xmlns="http://www.w3.org/2000/svg">
<path d="M25.6127 8.68674C25.0726 5.32395 22.6934 2.6354 19.5529 1.83669C17.9313 1.42465 16.2312 1.21319 14.4961 1.20715C12.7669 1.21199 11.068 1.42344 9.44643 1.83669C6.30597 2.6354 3.92676 5.32395 3.38664 8.68674C2.59639 13.6047 2.68701 18.8126 3.66455 24.6077C3.91709 26.1109 4.98526 27.312 6.46789 27.666C8.29489 28.1022 9.66272 27.2866 10.4022 26.3634C11.1671 25.4089 14.0864 21.6896 14.0864 21.6896C14.2242 21.5144 14.4054 21.4878 14.4997 21.4878C14.5939 21.4878 14.7752 21.5132 14.9129 21.6896C14.9129 21.6896 17.8335 25.4101 18.5971 26.3634C19.5493 27.55 21.0561 28.0503 22.5315 27.666C24.0068 27.283 25.0811 26.1109 25.3336 24.6089C26.3111 18.8138 26.403 13.6059 25.6115 8.68795L25.6127 8.68674ZM22.9508 24.2066C22.8118 25.0343 22.1291 25.2735 21.9225 25.3267C21.7183 25.3811 21.0053 25.5043 20.4821 24.8506C19.7221 23.9033 18.9173 22.8774 18.1053 21.8407L16.81 20.1913C16.2481 19.4784 15.4059 19.0699 14.4985 19.0699C13.591 19.0699 12.75 19.4784 12.1869 20.1913L10.8916 21.8407C10.0796 22.8762 9.27484 23.9033 8.5148 24.8506C7.9928 25.5043 7.28109 25.3811 7.07447 25.3267C6.86905 25.2735 6.18634 25.0343 6.04618 24.2054C5.11334 18.6748 5.02272 13.7231 5.77068 9.06978C6.15855 6.65915 7.83451 4.73911 10.0409 4.17844C11.4704 3.81474 12.9711 3.62865 14.4948 3.62382C16.0258 3.62865 17.5266 3.81474 18.956 4.17844C21.1624 4.73911 22.8384 6.65915 23.2263 9.06978C23.9742 13.7231 23.8836 18.6748 22.9508 24.2054V24.2066Z" fill="#E3B000"/>
</svg>
