<svg width="50" height="50" viewBox="0 0 50 50" fill="none" xmlns="http://www.w3.org/2000/svg">
<path d="M24.999 50C21.7926 50 18.7695 48.5915 16.7028 46.1372C16.5049 45.9017 16.2465 45.7934 15.9194 45.8142C12.7359 46.0788 9.5879 44.9454 7.32114 42.6786C5.05438 40.4117 3.91058 37.2781 4.18559 34.0799C4.21268 33.7736 4.096 33.4945 3.86266 33.2986C1.40631 31.2297 0 28.2044 0 25C0 21.7956 1.40839 18.7703 3.86266 16.7035C4.09809 16.5055 4.21476 16.2264 4.18767 15.9201C3.91266 12.7219 5.05646 9.5883 7.32322 7.32144C9.5879 5.05667 12.7068 3.90866 15.9215 4.18577C16.2236 4.21077 16.5069 4.09826 16.7049 3.86282C18.7716 1.40637 21.7947 0 25.001 0C28.2074 0 31.2305 1.40845 33.2972 3.86282C33.4972 4.09826 33.7556 4.2066 34.0806 4.18577C37.2495 3.90658 40.4121 5.05459 42.6789 7.32144C44.9456 9.5883 46.0894 12.7219 45.8144 15.9201C45.7873 16.2264 45.904 16.5055 46.1373 16.7014C48.5937 18.7703 50 21.7956 50 25C50 28.2044 48.5916 31.2297 46.1373 33.2965C45.9019 33.4945 45.7852 33.7736 45.8123 34.0799C46.0873 37.2781 44.9435 40.4117 42.6768 42.6786C40.4121 44.9433 37.2974 46.0955 34.0785 45.8142C33.7785 45.7976 33.4931 45.9038 33.2951 46.1372C31.2284 48.5936 28.2053 50 24.999 50ZM16.0111 43.7245C16.8965 43.7245 17.7174 44.1058 18.2987 44.7954C19.9675 46.7789 22.4113 47.9165 25.001 47.9165C27.5907 47.9165 30.0346 46.7789 31.7034 44.7954C32.3409 44.037 33.2806 43.6411 34.2618 43.737C36.8474 43.9557 39.3766 43.0348 41.208 41.2034C43.0393 39.372 43.9622 36.8406 43.7414 34.2549C43.6581 33.2674 44.0435 32.3381 44.8019 31.7006C46.7832 30.0296 47.9207 27.5856 47.9207 24.9979C47.9207 22.4102 46.7832 19.9642 44.7998 18.2932C44.0435 17.6577 43.6581 16.7264 43.7414 15.7388C43.9622 13.1532 43.0393 10.6217 41.208 8.79032C39.3746 6.95891 36.8265 6.03384 34.2618 6.25677C33.2618 6.34011 32.343 5.95675 31.7034 5.19835C30.0346 3.21485 27.5907 2.07726 25.001 2.07726C22.4113 2.07726 19.9675 3.21485 18.2987 5.19835C17.6591 5.95675 16.7111 6.33803 15.7402 6.25677C13.1505 6.03384 10.6254 6.95891 8.79412 8.79032C6.96279 10.6217 6.03983 13.1532 6.26068 15.7388C6.34401 16.7264 5.95858 17.6556 5.20022 18.2932C3.21888 19.9642 2.08134 22.4081 2.08134 24.9958C2.08134 27.5835 3.21888 30.0296 5.2023 31.7006C5.95858 32.336 6.34401 33.2674 6.26068 34.2549C6.03983 36.8406 6.96279 39.372 8.79412 41.2034C10.6254 43.0348 13.1672 43.9495 15.7402 43.737C15.8319 43.7286 15.9215 43.7245 16.0111 43.7245ZM18.7487 16.6639C17.5986 16.6639 16.6653 17.5973 16.6653 18.7474C16.6653 19.8975 17.5986 20.8309 18.7487 20.8309C19.8987 20.8309 20.8321 19.8975 20.8321 18.7474C20.8321 17.5973 19.8987 16.6639 18.7487 16.6639ZM31.2492 29.1649C30.0992 29.1649 29.1658 30.0983 29.1658 31.2484C29.1658 32.3985 30.0992 33.3319 31.2492 33.3319C32.3993 33.3319 33.3326 32.3985 33.3326 31.2484C33.3326 30.0983 32.3993 29.1649 31.2492 29.1649ZM20.6571 33.9091L31.0742 18.2828C31.393 17.8036 31.2638 17.1577 30.7846 16.8389C30.3096 16.5222 29.6616 16.6493 29.3408 17.1285L18.9237 32.7548C18.6049 33.234 18.7341 33.8799 19.2133 34.1987C19.3904 34.3174 19.5925 34.3737 19.7904 34.3737C20.1258 34.3737 20.455 34.2112 20.6571 33.9091Z" fill="#E3B000"/>
</svg>
