<svg width="24" height="25" viewBox="0 0 24 25" fill="none" xmlns="http://www.w3.org/2000/svg">
<path d="M14.2209 21.7579C13.0409 21.7579 11.3709 20.923 10.0509 16.9296L9.33086 14.7568L7.17086 14.0325C3.21086 12.7047 2.38086 11.0248 2.38086 9.83787C2.38086 8.66096 3.21086 6.97103 7.17086 5.63316L15.6609 2.78643C17.7809 2.07224 19.5509 2.28348 20.6409 3.36986C21.7309 4.45625 21.9409 6.24677 21.2309 8.3793L18.4009 16.9195C17.0709 20.923 15.4009 21.7579 14.2209 21.7579ZM7.64086 7.07162C4.86086 8.00711 3.87086 9.11362 3.87086 9.83787C3.87086 10.5621 4.86086 11.6686 7.64086 12.5941L10.1609 13.439C10.3809 13.5095 10.5609 13.6905 10.6309 13.9118L11.4709 16.4467C12.3909 19.2431 13.5009 20.239 14.2209 20.239C14.9409 20.239 16.0409 19.2431 16.9709 16.4467L19.8009 7.90652C20.3109 6.35742 20.2209 5.08997 19.5709 4.43613C18.9209 3.78229 17.6609 3.70181 16.1309 4.21483L7.64086 7.07162Z" fill="#BABABA"/>
<path d="M10.1108 14.4851C9.92078 14.4851 9.73078 14.4147 9.58078 14.2638C9.29078 13.9721 9.29078 13.4893 9.58078 13.1976L13.1608 9.58634C13.4508 9.29463 13.9308 9.29463 14.2208 9.58634C14.5108 9.87805 14.5108 10.3609 14.2208 10.6526L10.6408 14.2638C10.5008 14.4147 10.3008 14.4851 10.1108 14.4851Z" fill="#BABABA"/>
</svg>
