<svg width="36" height="30" viewBox="0 0 36 30" fill="none" xmlns="http://www.w3.org/2000/svg">
<path d="M31.7973 7.03848L32.0215 6.87633C32.9604 6.19747 33.813 5.41004 34.562 4.53161C33.6679 4.81028 32.7489 5.00673 31.816 5.11846L31.4995 4.19312C32.5392 3.57011 33.3895 2.68972 33.9754 1.64707C32.8414 2.18167 31.6444 2.57626 30.41 2.81911L30.1387 2.87248L29.9493 2.67106C27.341 -0.102279 22.979 -0.236529 20.2057 2.37159L31.7973 7.03848ZM31.7973 7.03848L31.8156 7.31461C31.8353 7.61181 31.8355 7.91319 31.8355 8.23551C31.8355 17.6602 24.7536 28.4732 11.8205 28.7453V28.7438L11.3198 28.7445C8.09302 28.7493 4.92095 27.9889 2.05981 26.5378M31.7973 7.03848L2.05981 26.5378M2.05981 26.5378C5.39204 26.4751 8.61597 25.3277 11.2395 23.2656L12.3418 22.3992L10.94 22.3726C8.26804 22.3219 5.89397 20.7373 4.80183 18.3508C5.70572 18.4225 6.61705 18.3379 7.49611 18.099L7.46396 17.1264C4.4896 16.5258 2.28915 14.0625 1.97787 11.1002C2.86363 11.4721 3.81227 11.6785 4.77784 11.7068L6.51779 11.7578L5.07016 10.7912C2.24689 8.90597 1.24441 5.27684 2.60627 2.2436C6.42921 6.62175 11.8752 9.2715 17.7019 9.56438L18.364 9.59766L18.214 8.95194C17.6589 6.56059 18.4182 4.05434 20.2055 2.37174L2.05981 26.5378Z" stroke="black"/>
</svg>
