<svg width="51" height="52" viewBox="0 0 51 52" fill="none" xmlns="http://www.w3.org/2000/svg">
<path d="M49.7888 10.455C48.7688 9.2225 47.2813 8.5 45.6875 8.5H13.7913L13.2388 4.59C12.8775 1.97625 10.625 0 7.96875 0H5.29125C4.69625 0 4.22875 0.4675 4.22875 1.0625C4.22875 1.6575 4.69625 2.125 5.29125 2.125H7.96875C9.5625 2.125 10.9013 3.315 11.135 4.86625L14.9175 32.13C15.5763 36.8263 19.635 40.375 24.395 40.375H41.4375C42.0325 40.375 42.5 39.9075 42.5 39.3125C42.5 38.7175 42.0325 38.25 41.4375 38.25H24.395C20.7188 38.25 17.5525 35.5088 17.0425 31.875H39.6525C44.2 31.875 48.1313 28.645 49.0238 24.1825L50.8938 14.8538C51.2125 13.2813 50.8088 11.6875 49.7888 10.4338V10.455ZM48.8113 14.45L46.9413 23.7788C46.24 27.2425 43.18 29.75 39.6525 29.75H16.745L14.0888 10.625H45.6875C46.6438 10.625 47.5363 11.05 48.1525 11.7938C48.7688 12.5375 49.0025 13.4938 48.8113 14.45ZM19.125 42.5213C16.7875 42.5213 14.875 44.4338 14.875 46.7713C14.875 49.1088 16.7875 51.0213 19.125 51.0213C21.4625 51.0213 23.375 49.1088 23.375 46.7713C23.375 44.4338 21.4625 42.5213 19.125 42.5213ZM19.125 48.8963C17.9563 48.8963 17 47.94 17 46.7713C17 45.6025 17.9563 44.6463 19.125 44.6463C20.2938 44.6463 21.25 45.6025 21.25 46.7713C21.25 47.94 20.2938 48.8963 19.125 48.8963ZM38.25 42.5213C35.9125 42.5213 34 44.4338 34 46.7713C34 49.1088 35.9125 51.0213 38.25 51.0213C40.5875 51.0213 42.5 49.1088 42.5 46.7713C42.5 44.4338 40.5875 42.5213 38.25 42.5213ZM38.25 48.8963C37.0813 48.8963 36.125 47.94 36.125 46.7713C36.125 45.6025 37.0813 44.6463 38.25 44.6463C39.4188 44.6463 40.375 45.6025 40.375 46.7713C40.375 47.94 39.4188 48.8963 38.25 48.8963Z" fill="#606060"/>
<path d="M1.0625 10.625C0.4675 10.625 0 11.0925 0 11.6875C0 12.2825 0.4675 12.75 1.0625 12.75H6.46C7.055 12.75 7.5225 12.2825 7.5225 11.6875C7.5225 11.0925 7.055 10.625 6.46 10.625H1.0625Z" fill="#606060"/>
<path d="M1.0625 19.125C0.4675 19.125 0 19.5925 0 20.1875C0 20.7825 0.4675 21.25 1.0625 21.25H7.4375C8.0325 21.25 8.5 20.7825 8.5 20.1875C8.5 19.5925 8.0325 19.125 7.4375 19.125H1.0625Z" fill="#606060"/>
<path d="M9.5625 29.75C10.1575 29.75 10.625 29.2825 10.625 28.6875C10.625 28.0925 10.1575 27.625 9.5625 27.625H1.0625C0.4675 27.625 0 28.0925 0 28.6875C0 29.2825 0.4675 29.75 1.0625 29.75H9.5625Z" fill="#606060"/>
</svg>
