<svg width="51" height="51" viewBox="0 0 51 51" fill="none" xmlns="http://www.w3.org/2000/svg">
<path d="M42.5 31.875C43.673 31.875 44.625 32.827 44.625 34C44.625 35.173 43.673 36.125 42.5 36.125C41.327 36.125 40.375 35.173 40.375 34C40.375 32.827 41.327 31.875 42.5 31.875ZM48.3459 17.7119C47.8401 17.4165 47.1877 17.5886 46.8924 18.0986C46.5864 18.6256 46.7861 19.3099 47.3408 19.584C48.382 20.1004 48.875 21.3265 48.875 22.4889V45.6875C48.875 47.447 47.447 48.875 45.6875 48.875H9.5625C5.45487 48.875 2.125 45.5451 2.125 41.4375V18.0625C2.125 17.3209 2.26737 16.6196 2.46925 15.9439C4.26487 17.9307 6.83187 19.125 9.5625 19.125H35.0625C35.649 19.125 36.125 18.649 36.125 18.0625C36.125 17.476 35.649 17 35.0625 17H9.5625C7.12937 17 4.85775 15.7866 3.4765 13.8125C4.82163 11.8915 7.04437 10.625 9.5625 10.625H28.6875C29.274 10.625 29.75 10.149 29.75 9.5625C29.75 8.976 29.274 8.5 28.6875 8.5H9.5625C4.28188 8.5 0 12.7819 0 18.0625V41.4375C0 46.7181 4.28188 51 9.5625 51H45.6875C48.6221 51 51 48.6221 51 45.6875V22.3125C51 20.4234 49.9821 18.6596 48.3459 17.7119ZM34 8.5C34.2677 8.5 34.5355 8.40013 34.7416 8.19825L40.375 2.7115V18.0625C40.375 18.649 40.851 19.125 41.4375 19.125C42.024 19.125 42.5 18.649 42.5 18.0625V2.79012L48.1376 8.20463C48.5626 8.60838 49.2363 8.602 49.64 8.17275C50.0459 7.74988 50.0353 7.07625 49.6103 6.67037L43.6475 0.945625C43.1545 0.452625 42.2046 0 41.4354 0C40.6661 0 39.6695 0.4165 39.151 0.935L33.2584 6.67462C32.8376 7.08475 32.8291 7.75625 33.2371 8.177C33.4475 8.39163 33.7237 8.49788 33.9979 8.49788L34 8.5Z" fill="#606060"/>
</svg>
