<svg width="51" height="51" viewBox="0 0 51 51" fill="none" xmlns="http://www.w3.org/2000/svg">
<path d="M18.137 30.736C16.131 28.73 13.462 27.625 10.6251 27.625C7.78825 27.625 5.11925 28.73 3.11112 30.736C-1.03263 34.8797 -1.03263 41.6203 3.14725 45.7959L7.42487 49.6931C8.311 50.5601 9.4755 50.9915 10.6357 50.9915C11.7875 50.9915 12.935 50.5665 13.7999 49.7186L18.1391 45.7619C20.1472 43.7559 21.2522 41.0869 21.2522 38.2479C21.2522 35.4089 20.1472 32.742 18.1391 30.7339L18.137 30.736ZM16.6707 44.2255L12.34 48.1738C11.3965 49.1003 9.85587 49.096 8.88475 48.1483L4.61562 44.2595C1.30062 40.9445 1.30062 35.5513 4.61562 32.2384C6.22212 30.634 8.35562 29.75 10.6272 29.75C12.8989 29.75 15.0324 30.634 16.6367 32.2384C18.2432 33.8428 19.1272 35.9784 19.1272 38.25C19.1272 40.5216 18.2432 42.6551 16.6729 44.2255H16.6707ZM10.6251 34C8.28125 34 6.37512 35.9061 6.37512 38.25C6.37512 40.5939 8.28125 42.5 10.6251 42.5C12.969 42.5 14.8751 40.5939 14.8751 38.25C14.8751 35.9061 12.969 34 10.6251 34ZM10.6251 40.375C9.45425 40.375 8.50012 39.4209 8.50012 38.25C8.50012 37.0791 9.45425 36.125 10.6251 36.125C11.796 36.125 12.7501 37.0791 12.7501 38.25C12.7501 39.4209 11.796 40.375 10.6251 40.375ZM47.887 3.111C45.881 1.105 43.212 0 40.3751 0C37.5382 0 34.8692 1.105 32.8611 3.111C28.7174 7.25475 28.7174 13.9952 32.8972 18.1709L37.1749 22.0681C38.061 22.9351 39.2255 23.3665 40.3857 23.3665C41.5375 23.3665 42.685 22.9415 43.5499 22.0936L47.8891 18.1369C49.8972 16.1309 51.0022 13.4619 51.0022 10.6229C51.0022 7.78388 49.8972 5.117 47.8891 3.10888L47.887 3.111ZM46.4207 16.6005L42.09 20.5487C41.1444 21.4753 39.608 21.4731 38.6347 20.5233L34.3656 16.6345C31.0506 13.3195 31.0506 7.92625 34.3656 4.61338C35.9721 3.009 38.1056 2.125 40.3772 2.125C42.6489 2.125 44.7824 3.009 46.3867 4.61338C47.9932 6.21775 48.8772 8.35338 48.8772 10.625C48.8772 12.8966 47.9933 15.0301 46.4229 16.6005H46.4207ZM40.3751 6.375C38.0312 6.375 36.1251 8.28113 36.1251 10.625C36.1251 12.9689 38.0312 14.875 40.3751 14.875C42.719 14.875 44.6251 12.9689 44.6251 10.625C44.6251 8.28113 42.719 6.375 40.3751 6.375ZM40.3751 12.75C39.2043 12.75 38.2501 11.7959 38.2501 10.625C38.2501 9.45413 39.2043 8.5 40.3751 8.5C41.546 8.5 42.5001 9.45413 42.5001 10.625C42.5001 11.7959 41.546 12.75 40.3751 12.75ZM26.9685 32.3531C27.3722 32.7781 27.3574 33.4496 26.9324 33.8555C26.7262 34.051 26.4627 34.1488 26.1992 34.1488C25.9187 34.1488 25.6404 34.0382 25.43 33.8194C24.2825 32.6166 23.5642 31.0441 23.4091 29.393C23.3539 28.8086 23.7831 28.2901 24.3675 28.237C24.9667 28.1648 25.4704 28.611 25.5235 29.1954C25.634 30.3726 26.1461 31.4946 26.9685 32.3531ZM50.9364 41.463C50.9789 41.803 51.0001 42.1494 51.0001 42.5C51.0001 43.792 50.7175 45.033 50.1586 46.1911C49.9759 46.5715 49.5955 46.7925 49.2002 46.7925C49.0451 46.7925 48.8879 46.7585 48.7391 46.6862C48.21 46.4312 47.989 45.7959 48.244 45.2689C48.6626 44.4019 48.873 43.4711 48.873 42.5021C48.873 42.2386 48.8581 41.9773 48.8262 41.7223C48.754 41.14 49.1705 40.6109 49.7528 40.5386C50.3414 40.4515 50.8662 40.8829 50.9364 41.4651V41.463ZM24.2846 49.9375C24.2846 50.524 23.8086 51 23.2221 51H20.1876C19.6011 51 19.1251 50.524 19.1251 49.9375C19.1251 49.351 19.6011 48.875 20.1876 48.875H23.2221C23.8086 48.875 24.2846 49.351 24.2846 49.9375ZM45.4751 49.402C45.6281 49.9694 45.2945 50.5537 44.7271 50.7046C44.0067 50.9001 43.2566 51 42.5001 51H40.2221C39.6356 51 39.1596 50.524 39.1596 49.9375C39.1596 49.351 39.6356 48.875 40.2221 48.875H42.5001C43.0696 48.875 43.6306 48.8006 44.1704 48.654C44.7399 48.4989 45.3221 48.8346 45.4751 49.402ZM47.2452 35.445C47.7319 35.7723 47.8615 36.4331 47.5321 36.9198C47.326 37.2257 46.9924 37.3894 46.6502 37.3894C46.4462 37.3894 46.2401 37.3299 46.0574 37.2088C45.0437 36.5266 43.8601 36.1526 42.6319 36.1271C42.0454 36.1144 41.58 35.6299 41.5906 35.0434C41.6034 34.4569 42.1431 34.0404 42.6744 34.0021C44.3106 34.0361 45.8916 34.5355 47.2431 35.4471L47.2452 35.445ZM37.3428 35.0625C37.3428 35.649 36.8667 36.125 36.2803 36.125H32.0303C31.4437 36.125 30.9677 35.649 30.9677 35.0625C30.9677 34.476 31.4437 34 32.0303 34H36.2803C36.8667 34 37.3428 34.476 37.3428 35.0625ZM34.9118 49.9375C34.9118 50.524 34.4357 51 33.8492 51H29.5992C29.0127 51 28.5367 50.524 28.5367 49.9375C28.5367 49.351 29.0127 48.875 29.5992 48.875H33.8492C34.4357 48.875 34.9118 49.351 34.9118 49.9375ZM30.8147 23.375C29.6099 23.375 28.4751 23.7681 27.5316 24.5098C27.3361 24.6628 27.1045 24.7371 26.875 24.7371C26.5605 24.7371 26.2502 24.599 26.0399 24.3334C25.6765 23.8722 25.7551 23.2029 26.2162 22.8416C27.538 21.8004 29.1296 21.25 30.8147 21.25C31.4012 21.25 31.8772 21.726 31.8772 22.3125C31.8772 22.899 31.4012 23.375 30.8147 23.375Z" fill="#606060"/>
</svg>
