<svg width="28" height="29" viewBox="0 0 28 29" fill="none" xmlns="http://www.w3.org/2000/svg">
<path d="M14.0369 26.1296C12.2436 26.1296 10.5234 25.7244 8.9243 24.9255C8.82362 24.8751 8.70672 24.8621 8.59577 24.8891C7.63758 25.1212 5.71702 25.6407 4.65745 25.9297C4.17457 26.0617 3.67687 25.9209 3.32582 25.5537C2.97978 25.1918 2.84562 24.6616 2.9757 24.17C3.24823 23.1398 3.68013 21.5099 3.9529 20.4933C3.98872 20.3596 3.9697 20.2161 3.89947 20.089C2.92262 18.3231 2.40625 16.3121 2.40625 14.2732C2.40613 7.73547 7.6237 2.41663 14.0369 2.41663C20.45 2.41663 25.6676 7.73547 25.6676 14.2732C25.6676 20.8108 20.45 26.1296 14.0369 26.1296ZM8.70952 23.1548C9.03245 23.1548 9.35363 23.2294 9.64623 23.3755C11.0183 24.0611 12.4957 24.4088 14.0369 24.4088C19.5338 24.4088 24.006 19.8619 24.006 14.2732C24.006 8.68437 19.5338 4.13753 14.0369 4.13753C8.53988 4.13753 4.0677 8.68437 4.0677 14.2732C4.0677 16.0123 4.508 17.7277 5.341 19.2335C5.63383 19.7629 5.70932 20.3739 5.55368 20.954C5.3214 21.8199 4.97338 23.1316 4.70715 24.1369C5.93612 23.803 7.39713 23.4121 8.21718 23.2135C8.37935 23.1742 8.54467 23.1548 8.70952 23.1548Z" fill="#BABABA"/>
<path d="M17.0212 20.4116C16.6034 20.4116 16.1975 20.3477 15.8145 20.2217C15.3246 20.0609 14.7752 19.8692 14.079 19.5576C11.5853 18.4428 9.77325 16.1388 8.91494 14.8645C8.89055 14.8282 8.87352 14.803 8.86395 14.7898C8.48374 14.2644 7.60547 12.8973 7.60547 11.4773C7.60547 9.98668 8.32799 9.18845 8.63657 8.84758L8.6949 8.78269C9.03907 8.39349 9.43387 8.35144 9.58764 8.35144C9.75925 8.35144 9.98092 8.35277 10.1733 8.36268C10.1859 8.36328 10.1989 8.3634 10.2122 8.3634L10.2594 8.36328C10.4775 8.36328 10.7291 8.41053 10.9559 8.9747C11.04 9.18398 11.1636 9.49537 11.2937 9.82307C11.5483 10.4648 11.8369 11.1922 11.8854 11.2929C11.9588 11.4448 12.0414 11.6783 11.9106 11.9495L11.8687 12.0375C11.7915 12.2006 11.7306 12.3295 11.5922 12.4967C11.542 12.5574 11.4901 12.6229 11.4383 12.6883C11.3344 12.8194 11.2269 12.9551 11.1322 13.0526C10.974 13.2157 10.8907 13.3191 11.018 13.5453C11.2322 13.9258 11.8227 14.8963 12.6778 15.6858C13.6305 16.5656 14.4428 16.9305 14.8794 17.1265C14.9649 17.1649 15.0342 17.1961 15.0851 17.2224C15.1993 17.2816 15.29 17.3105 15.3622 17.3105C15.4476 17.3105 15.5189 17.2693 15.6004 17.1726C15.8194 16.9133 16.3624 16.2474 16.5491 15.9571C16.6771 15.7582 16.8211 15.6655 17.0023 15.6655C17.1229 15.6655 17.2435 15.7072 17.3669 15.7537C17.6621 15.865 19.2437 16.6732 19.4462 16.7781C19.5048 16.8086 19.5596 16.836 19.6104 16.8614C19.8419 16.9772 19.995 17.0539 20.0739 17.1899C20.187 17.3857 20.1464 18.0877 19.9072 18.782C19.6319 19.5804 18.3507 20.2609 17.7726 20.3503C17.5052 20.3915 17.2595 20.4116 17.0212 20.4116Z" fill="#BABABA"/>
</svg>
