<svg width="22" height="21" viewBox="0 0 22 21" fill="none" xmlns="http://www.w3.org/2000/svg">
<path d="M16.0396 0.834885C15.0078 0.850934 13.9985 1.13896 13.1137 1.66988C12.2288 2.2008 11.4997 2.95581 11 3.85866C10.5003 2.95581 9.77118 2.2008 8.88632 1.66988C8.00146 1.13896 6.99216 0.850934 5.96037 0.834885C4.31556 0.906347 2.76589 1.62588 1.64991 2.83629C0.533927 4.0467 -0.0576437 5.64959 0.00443589 7.29478C0.00443589 11.4612 4.38983 16.0115 8.06785 19.0967C8.88905 19.7868 9.92734 20.1651 11 20.1651C12.0727 20.1651 13.1109 19.7868 13.9321 19.0967C17.6102 16.0115 21.9956 11.4612 21.9956 7.29478C22.0576 5.64959 21.4661 4.0467 20.3501 2.83629C19.2341 1.62588 17.6844 0.906347 16.0396 0.834885ZM12.7547 17.6947C12.2636 18.1083 11.6421 18.3352 11 18.3352C10.3579 18.3352 9.73644 18.1083 9.24529 17.6947C4.53736 13.7446 1.83703 9.95479 1.83703 7.29478C1.77439 6.1354 2.17273 4.99829 2.94517 4.13145C3.7176 3.2646 4.80147 2.73835 5.96037 2.66748C7.11927 2.73835 8.20313 3.2646 8.97557 4.13145C9.748 4.99829 10.1463 6.1354 10.0837 7.29478C10.0837 7.5378 10.1802 7.77086 10.3521 7.9427C10.5239 8.11454 10.757 8.21108 11 8.21108C11.243 8.21108 11.4761 8.11454 11.6479 7.9427C11.8198 7.77086 11.9163 7.5378 11.9163 7.29478C11.8537 6.1354 12.252 4.99829 13.0244 4.13145C13.7969 3.2646 14.8807 2.73835 16.0396 2.66748C17.1985 2.73835 18.2824 3.2646 19.0548 4.13145C19.8273 4.99829 20.2256 6.1354 20.163 7.29478C20.163 9.95479 17.4626 13.7446 12.7547 17.6911V17.6947Z" fill="#606060"/>
</svg>
