<svg width="36" height="26" viewBox="0 0 36 26" fill="none" xmlns="http://www.w3.org/2000/svg">
<path d="M34.7639 4.08874L34.7638 4.08837C34.3953 2.70138 33.3096 1.609 31.9341 1.23882L31.9339 1.23879C31.2845 1.06386 30.0999 0.924196 28.6459 0.817599C27.2061 0.712039 25.5439 0.641428 23.9646 0.594277C22.3862 0.547151 20.8946 0.523574 19.7975 0.511784C19.249 0.50589 18.7993 0.502944 18.4868 0.501471C18.3306 0.500735 18.2087 0.500367 18.126 0.500183L18.0318 0.500023L18.0079 0.500003L18.0019 0.5L18.0004 0.5L18.0001 0.5L18 0L17.9999 0.5L17.9996 0.5L17.9981 0.5L17.9921 0.500003L17.9682 0.500023L17.874 0.500183C17.7913 0.500367 17.6694 0.500735 17.5132 0.501471C17.2007 0.502944 16.751 0.50589 16.2025 0.511784C15.1053 0.523574 13.6137 0.547151 12.0352 0.594278C10.4558 0.641428 8.79343 0.712039 7.35341 0.8176C5.89934 0.924192 4.71439 1.06385 4.06455 1.23879L34.7639 4.08874ZM34.7639 4.08874C35.1253 5.4452 35.3123 7.57726 35.4065 9.40598C35.4533 10.3129 35.4766 11.1326 35.4883 11.7256C35.4942 12.022 35.4971 12.2615 35.4986 12.4266C35.4993 12.5091 35.4996 12.5731 35.4998 12.6162L35.5 12.665L35.5 12.6772L35.5 12.6802V12.6809V12.681L36 12.681L35.5 12.681V12.6811V12.6818L35.5 12.6848L35.5 12.697L35.4998 12.7458C35.4996 12.7889 35.4993 12.8529 35.4986 12.9354C35.4971 13.1005 35.4942 13.34 35.4884 13.6364C35.4767 14.2294 35.4534 15.0492 35.4067 15.9561C35.3127 17.7848 35.126 19.9169 34.7653 21.2735C34.3954 22.6621 33.3095 23.7531 31.9354 24.1232C31.2856 24.2982 30.1007 24.4378 28.6466 24.5444C27.2066 24.65 25.5442 24.7206 23.9648 24.7677C22.3863 24.8149 20.8947 24.8384 19.7975 24.8502C19.249 24.8561 18.7993 24.8591 18.4868 24.8605C18.3306 24.8613 18.2087 24.8616 18.126 24.8618L18.0318 24.862L18.0079 24.862L18.0019 24.862H18.0004H18.0001L18 25.362L17.9999 24.862H17.9996H17.9981L17.9921 24.862L17.9682 24.862L17.874 24.8618C17.7913 24.8616 17.6694 24.8613 17.5132 24.8605C17.2007 24.8591 16.751 24.8561 16.2025 24.8502C15.1054 24.8384 13.6138 24.8149 12.0354 24.7677C10.4561 24.7206 8.79385 24.65 7.35405 24.5444C5.90012 24.4378 4.71546 24.2981 4.06605 24.1232L4.06594 24.1232C2.69043 23.753 1.60468 22.6606 1.23624 21.2736L1.23614 21.2733C0.874708 19.9168 0.687676 17.7847 0.593463 15.956C0.54674 15.0491 0.523359 14.2294 0.511669 13.6364C0.505825 13.34 0.502908 13.1005 0.501451 12.9354C0.500723 12.8529 0.50036 12.7889 0.500179 12.7458L0.500022 12.697L0.500003 12.6848L0.5 12.6818L0.5 12.6811V12.681L0 12.681M34.7639 4.08874L0 12.681M0 12.681L0.5 12.681V12.6809L0.5 12.6802L0.500003 12.6772L0.500022 12.665L0.500179 12.6162C0.50036 12.5731 0.500723 12.5091 0.501451 12.4266C0.502908 12.2615 0.505825 12.022 0.511669 11.7256C0.523359 11.1326 0.54674 10.3129 0.593463 9.40598C0.687676 7.57726 0.874708 5.4452 1.23614 4.08874L1.23627 4.08825M0 12.681L1.23627 4.08825M1.23627 4.08825C1.6047 2.69997 2.69032 1.60901 4.06449 1.23881L1.23627 4.08825ZM13.819 18.0345V18.8943L14.5663 18.4691L23.9743 13.1156L24.738 12.681L23.9743 12.2464L14.5663 6.89293L13.819 6.4677V7.3275V18.0345Z" stroke="black"/>
</svg>
