<svg width="201" height="168" viewBox="0 0 201 168" fill="none" xmlns="http://www.w3.org/2000/svg">
<path opacity="0.05" d="M0 71.4773C0 69.1564 1.876 67.2727 4.1875 67.2727H46.0625C48.374 67.2727 50.25 69.1564 50.25 71.4773C50.25 73.7982 48.374 75.6818 46.0625 75.6818H4.1875C1.876 75.6818 0 73.7982 0 71.4773ZM201 79.8864V121.932C201 134.512 193.094 145.275 182.006 149.48C183.48 152.709 184.25 156.19 184.25 159.773C184.25 173.681 172.977 185 159.125 185C145.273 185 134 173.681 134 159.773C134 156.88 134.503 154.046 135.474 151.364H65.526C66.4975 154.046 67 156.88 67 159.773C67 173.681 55.7272 185 41.875 185C28.0227 185 16.75 173.681 16.75 159.773C16.75 156.19 17.5205 152.709 18.9945 149.48C7.906 145.275 0 134.512 0 121.932V96.7045C0 94.3836 1.876 92.5 4.1875 92.5C6.499 92.5 8.375 94.3836 8.375 96.7045V121.932C8.375 133.52 17.7634 142.955 29.3125 142.955H134V37.8409C134 21.6114 120.851 8.40909 104.688 8.40909C102.376 8.40909 100.5 6.52545 100.5 4.20455C100.5 1.88364 102.376 0 104.688 0C125.466 0 142.375 16.978 142.375 37.8409V42.0455H163.312C184.091 42.0455 201 59.0234 201 79.8864ZM142.375 50.4545V92.5H192.625V79.8864C192.625 63.6568 179.476 50.4545 163.312 50.4545H142.375ZM56.3051 151.364H29.3125C28.7011 151.364 28.0897 151.338 27.4784 151.305C25.929 153.903 25.125 156.788 25.125 159.773C25.125 169.048 32.6374 176.591 41.875 176.591C51.1126 176.591 58.625 169.048 58.625 159.773C58.625 156.813 57.8294 153.945 56.3051 151.364ZM173.522 151.305C172.919 151.347 172.307 151.364 171.688 151.364H144.695C143.171 153.945 142.375 156.813 142.375 159.773C142.375 169.048 149.887 176.591 159.125 176.591C168.363 176.591 175.875 169.048 175.875 159.773C175.875 156.788 175.063 153.903 173.522 151.305ZM192.625 121.932V100.909H142.375V142.955H171.688C183.237 142.955 192.625 133.52 192.625 121.932ZM4.1875 8.40909H79.5625C81.874 8.40909 83.75 6.52545 83.75 4.20455C83.75 1.88364 81.874 0 79.5625 0H4.1875C1.876 0 0 1.88364 0 4.20455C0 6.52545 1.876 8.40909 4.1875 8.40909ZM4.1875 42.0455H62.8125C65.124 42.0455 67 40.1618 67 37.8409C67 35.52 65.124 33.6364 62.8125 33.6364H4.1875C1.876 33.6364 0 35.52 0 37.8409C0 40.1618 1.876 42.0455 4.1875 42.0455Z" fill="#606060"/>
</svg>
